<svg id="svg" version="1.1" width="536" height="500" xmlns="http://www.w3.org/2000/svg" xmlns:xlink="http://www.w3.org/1999/xlink" style="display: block;"><g id="svgg"><path id="path0" d="M14.801 8.012 C 13.706 9.968,12.732 11.903,12.636 12.313 C 12.540 12.724,12.043 13.396,11.532 13.806 C 11.021 14.216,8.359 18.700,5.616 23.770 L 0.629 32.987 2.790 37.203 C 6.269 43.992,11.979 54.037,12.599 54.460 C 12.914 54.675,13.963 56.278,14.932 58.022 L 16.693 61.194 32.443 61.194 L 48.193 61.194 48.164 63.246 C 48.141 64.811,48.489 65.299,49.627 65.299 C 50.448 65.299,51.388 65.718,51.716 66.231 C 52.811 67.942,54.711 67.354,54.127 65.485 C 53.839 64.562,53.637 62.882,53.679 61.754 C 53.730 60.377,53.380 59.701,52.614 59.701 C 51.699 59.701,51.819 59.149,53.222 56.903 C 54.184 55.364,56.046 51.975,57.359 49.373 C 58.672 46.771,61.093 42.573,62.739 40.045 C 66.929 33.605,66.886 29.137,62.603 26.115 C 62.104 25.762,60.932 23.659,53.668 10.075 L 50.875 4.851 33.833 4.654 L 16.791 4.458 14.801 8.012 M346.016 5.037 C 345.829 5.345,344.094 8.619,342.161 12.313 C 340.229 16.007,338.060 19.701,337.343 20.522 C 336.626 21.343,334.732 24.473,333.133 27.478 L 330.226 32.940 333.522 39.231 C 335.335 42.691,337.067 45.522,337.372 45.522 C 337.677 45.522,338.693 47.118,339.629 49.067 C 340.566 51.017,342.247 54.175,343.366 56.086 C 345.355 59.483,345.366 59.568,343.870 59.960 C 342.728 60.258,342.448 60.771,342.765 61.982 C 342.998 62.875,342.803 64.222,342.332 64.977 C 341.206 66.780,342.220 67.721,344.054 66.576 C 344.850 66.079,346.010 65.672,346.632 65.672 C 347.389 65.672,347.761 64.934,347.761 63.433 L 347.761 61.194 364.031 61.194 L 380.300 61.194 383.434 55.686 C 385.157 52.657,386.567 49.803,386.567 49.343 C 386.567 48.884,386.871 48.507,387.243 48.507 C 388.000 48.507,390.846 43.848,394.120 37.249 L 396.302 32.853 392.155 25.223 C 389.874 21.027,387.725 17.413,387.380 17.192 C 387.034 16.972,385.305 14.021,383.536 10.634 L 380.320 4.478 363.338 4.478 C 353.999 4.478,346.203 4.729,346.016 5.037 M26.369 18.657 C 29.333 23.787,32.389 29.041,33.158 30.332 L 34.558 32.679 27.079 45.598 C 18.574 60.290,18.799 60.074,16.454 55.797 C 15.493 54.045,12.237 48.386,9.219 43.221 C 6.201 38.056,3.731 33.477,3.731 33.045 C 3.731 32.393,13.837 14.510,17.746 8.246 C 19.150 5.996,18.831 5.611,26.369 18.657 M386.149 20.411 C 390.114 27.328,393.257 33.215,393.134 33.495 C 389.880 40.887,377.604 60.048,377.096 58.528 C 376.969 58.147,373.675 52.364,369.776 45.677 C 365.877 38.990,362.687 33.208,362.687 32.829 C 362.687 32.165,372.193 15.362,375.925 9.429 C 378.128 5.927,377.393 5.138,386.149 20.411 M55.298 19.281 C 58.951 25.576,61.940 30.873,61.940 31.052 C 61.940 31.231,55.812 31.285,48.321 31.174 L 34.701 30.970 28.178 19.776 C 24.590 13.619,21.652 8.323,21.648 8.006 C 21.645 7.688,27.720 7.521,35.149 7.632 L 48.656 7.836 55.298 19.281 M375.158 8.396 C 374.952 8.909,371.937 14.198,368.458 20.149 L 362.132 30.970 348.603 31.174 C 341.162 31.285,335.075 31.153,335.075 30.878 C 335.075 30.355,343.743 15.069,346.766 10.261 L 348.526 7.463 362.030 7.463 C 372.534 7.463,375.450 7.670,375.158 8.396 M71.328 31.594 C 67.287 32.814,67.242 33.983,71.196 34.978 C 76.852 36.403,77.612 36.193,77.612 33.209 C 77.612 30.247,76.629 29.995,71.328 31.594 M319.403 33.114 C 319.403 36.180,319.646 36.255,325.316 34.946 C 330.893 33.659,329.722 32.056,322.344 30.877 L 319.403 30.406 319.403 33.114 M60.722 37.935 C 59.198 40.672,55.814 46.521,53.202 50.933 L 48.452 58.955 34.674 58.955 C 27.096 58.955,20.896 58.770,20.896 58.544 C 20.896 58.318,24.170 52.448,28.172 45.501 L 35.448 32.868 48.881 32.665 C 65.164 32.420,64.065 31.930,60.722 37.935 M79.851 33.209 C 79.851 34.017,80.680 34.328,82.836 34.328 C 84.992 34.328,85.821 34.017,85.821 33.209 C 85.821 32.400,84.992 32.090,82.836 32.090 C 80.680 32.090,79.851 32.400,79.851 33.209 M88.806 33.209 C 88.806 33.991,89.594 34.328,91.418 34.328 C 93.242 34.328,94.030 33.991,94.030 33.209 C 94.030 32.427,93.242 32.090,91.418 32.090 C 89.594 32.090,88.806 32.427,88.806 33.209 M96.269 33.209 C 96.269 34.038,97.139 34.328,99.627 34.328 C 102.114 34.328,102.985 34.038,102.985 33.209 C 102.985 32.380,102.114 32.090,99.627 32.090 C 97.139 32.090,96.269 32.380,96.269 33.209 M104.478 33.209 C 104.478 34.017,105.307 34.328,107.463 34.328 C 109.619 34.328,110.448 34.017,110.448 33.209 C 110.448 32.400,109.619 32.090,107.463 32.090 C 105.307 32.090,104.478 32.400,104.478 33.209 M113.433 33.209 C 113.433 34.150,114.053 34.367,116.231 34.187 C 117.771 34.059,119.030 33.619,119.030 33.209 C 119.030 32.799,117.771 32.358,116.231 32.231 C 114.053 32.051,113.433 32.268,113.433 33.209 M120.896 33.209 C 120.896 34.038,121.766 34.328,124.254 34.328 C 126.741 34.328,127.612 34.038,127.612 33.209 C 127.612 32.380,126.741 32.090,124.254 32.090 C 121.766 32.090,120.896 32.380,120.896 33.209 M129.851 33.209 C 129.851 33.991,130.638 34.328,132.463 34.328 C 134.287 34.328,135.075 33.991,135.075 33.209 C 135.075 32.427,134.287 32.090,132.463 32.090 C 130.638 32.090,129.851 32.427,129.851 33.209 M138.060 33.209 C 138.060 34.017,138.889 34.328,141.045 34.328 C 143.201 34.328,144.030 34.017,144.030 33.209 C 144.030 32.400,143.201 32.090,141.045 32.090 C 138.889 32.090,138.060 32.400,138.060 33.209 M145.522 33.209 C 145.522 34.038,146.393 34.328,148.881 34.328 C 151.368 34.328,152.239 34.038,152.239 33.209 C 152.239 32.380,151.368 32.090,148.881 32.090 C 146.393 32.090,145.522 32.380,145.522 33.209 M154.478 33.209 C 154.478 33.991,155.265 34.328,157.090 34.328 C 158.914 34.328,159.701 33.991,159.701 33.209 C 159.701 32.427,158.914 32.090,157.090 32.090 C 155.265 32.090,154.478 32.427,154.478 33.209 M162.687 33.209 C 162.687 34.017,163.516 34.328,165.672 34.328 C 167.828 34.328,168.657 34.017,168.657 33.209 C 168.657 32.400,167.828 32.090,165.672 32.090 C 163.516 32.090,162.687 32.400,162.687 33.209 M170.647 32.587 C 169.461 33.773,170.374 34.328,173.507 34.328 C 175.995 34.328,176.866 34.038,176.866 33.209 C 176.866 32.055,171.696 31.538,170.647 32.587 M179.104 33.209 C 179.104 34.017,179.934 34.328,182.090 34.328 C 184.245 34.328,185.075 34.017,185.075 33.209 C 185.075 32.400,184.245 32.090,182.090 32.090 C 179.934 32.090,179.104 32.400,179.104 33.209 M187.085 32.567 C 186.090 33.562,187.508 34.328,190.343 34.328 C 192.459 34.328,193.284 34.015,193.284 33.209 C 193.284 32.068,188.119 31.533,187.085 32.567 M195.522 33.209 C 195.522 34.017,196.352 34.328,198.507 34.328 C 200.663 34.328,201.493 34.017,201.493 33.209 C 201.493 32.400,200.663 32.090,198.507 32.090 C 196.352 32.090,195.522 32.400,195.522 33.209 M203.731 33.209 C 203.731 34.017,204.561 34.328,206.716 34.328 C 208.872 34.328,209.701 34.017,209.701 33.209 C 209.701 32.400,208.872 32.090,206.716 32.090 C 204.561 32.090,203.731 32.400,203.731 33.209 M211.940 33.209 C 211.940 34.017,212.769 34.328,214.925 34.328 C 217.081 34.328,217.910 34.017,217.910 33.209 C 217.910 32.400,217.081 32.090,214.925 32.090 C 212.769 32.090,211.940 32.400,211.940 33.209 M220.149 33.209 C 220.149 34.017,220.978 34.328,223.134 34.328 C 225.290 34.328,226.119 34.017,226.119 33.209 C 226.119 32.400,225.290 32.090,223.134 32.090 C 220.978 32.090,220.149 32.400,220.149 33.209 M228.358 33.209 C 228.358 34.017,229.187 34.328,231.343 34.328 C 233.499 34.328,234.328 34.017,234.328 33.209 C 234.328 32.400,233.499 32.090,231.343 32.090 C 229.187 32.090,228.358 32.400,228.358 33.209 M236.567 33.209 C 236.567 34.017,237.396 34.328,239.552 34.328 C 241.708 34.328,242.537 34.017,242.537 33.209 C 242.537 32.400,241.708 32.090,239.552 32.090 C 237.396 32.090,236.567 32.400,236.567 33.209 M244.776 33.166 C 244.776 34.049,245.598 34.328,248.197 34.328 C 252.601 34.328,252.342 32.561,247.890 32.233 C 245.470 32.055,244.776 32.263,244.776 33.166 M252.985 33.209 C 252.985 34.017,253.814 34.328,255.970 34.328 C 258.126 34.328,258.955 34.017,258.955 33.209 C 258.955 32.400,258.126 32.090,255.970 32.090 C 253.814 32.090,252.985 32.400,252.985 33.209 M261.194 33.209 C 261.194 34.017,262.023 34.328,264.179 34.328 C 266.335 34.328,267.164 34.017,267.164 33.209 C 267.164 32.400,266.335 32.090,264.179 32.090 C 262.023 32.090,261.194 32.400,261.194 33.209 M269.403 33.166 C 269.403 34.049,270.224 34.328,272.823 34.328 C 277.228 34.328,276.969 32.561,272.517 32.233 C 270.097 32.055,269.403 32.263,269.403 33.166 M278.358 33.209 C 278.358 33.991,279.146 34.328,280.970 34.328 C 282.794 34.328,283.582 33.991,283.582 33.209 C 283.582 32.427,282.794 32.090,280.970 32.090 C 279.146 32.090,278.358 32.427,278.358 33.209 M285.821 33.209 C 285.821 34.017,286.650 34.328,288.806 34.328 C 290.962 34.328,291.791 34.017,291.791 33.209 C 291.791 32.400,290.962 32.090,288.806 32.090 C 286.650 32.090,285.821 32.400,285.821 33.209 M294.030 33.166 C 294.030 34.049,294.851 34.328,297.450 34.328 C 301.855 34.328,301.596 32.561,297.143 32.233 C 294.724 32.055,294.030 32.263,294.030 33.166 M302.985 33.209 C 302.985 33.991,303.773 34.328,305.597 34.328 C 307.421 34.328,308.209 33.991,308.209 33.209 C 308.209 32.427,307.421 32.090,305.597 32.090 C 303.773 32.090,302.985 32.427,302.985 33.209 M310.448 33.209 C 310.448 34.038,311.318 34.328,313.806 34.328 C 316.294 34.328,317.164 34.038,317.164 33.209 C 317.164 32.380,316.294 32.090,313.806 32.090 C 311.318 32.090,310.448 32.380,310.448 33.209 M365.866 40.672 C 368.306 44.776,371.641 50.569,373.278 53.545 L 376.254 58.955 362.194 58.945 L 348.134 58.934 340.838 46.220 C 336.824 39.228,333.685 33.272,333.862 32.985 C 334.038 32.698,340.314 32.631,347.807 32.836 L 361.431 33.209 365.866 40.672 M338.806 61.883 C 338.806 62.236,337.966 62.735,336.940 62.993 C 334.969 63.488,334.321 65.672,336.145 65.672 C 339.774 65.672,342.589 62.692,339.925 61.670 C 339.310 61.434,338.806 61.530,338.806 61.883 M55.224 63.076 C 55.224 64.547,58.469 66.020,60.214 65.341 C 61.462 64.855,61.431 64.703,59.805 63.377 C 57.697 61.658,55.224 61.495,55.224 63.076 M63.433 66.063 C 63.433 67.086,66.174 68.657,67.959 68.657 C 69.448 68.657,68.597 65.830,66.978 65.396 C 64.306 64.680,63.433 64.844,63.433 66.063 M328.687 65.995 C 327.505 66.867,327.415 67.243,328.198 68.036 C 329.273 69.126,332.806 67.646,333.398 65.858 C 333.826 64.563,330.496 64.659,328.687 65.995 M70.149 68.570 C 70.149 69.939,72.012 70.863,74.813 70.885 C 77.039 70.903,76.251 69.004,73.641 68.060 C 70.381 66.882,70.149 66.916,70.149 68.570 M322.201 68.032 C 318.920 69.230,319.501 71.183,322.948 70.539 C 326.282 69.916,326.432 69.802,325.862 68.316 C 325.361 67.011,325.060 66.987,322.201 68.032 M47.761 70.522 C 47.761 72.811,47.992 73.134,49.627 73.134 C 51.262 73.134,51.493 72.811,51.493 70.522 C 51.493 68.234,51.262 67.910,49.627 67.910 C 47.992 67.910,47.761 68.234,47.761 70.522 M344.776 70.522 C 344.776 72.637,345.060 73.134,346.269 73.134 C 347.477 73.134,347.761 72.637,347.761 70.522 C 347.761 68.408,347.477 67.910,346.269 67.910 C 345.060 67.910,344.776 68.408,344.776 70.522 M54.478 69.056 C 54.478 70.132,57.013 73.134,57.922 73.134 C 59.151 73.134,59.242 72.079,58.183 70.100 C 57.507 68.838,54.478 67.984,54.478 69.056 M338.190 70.384 C 337.297 71.334,336.567 72.341,336.567 72.623 C 336.567 73.680,339.369 73.081,340.556 71.770 C 343.300 68.737,341.002 67.391,338.190 70.384 M78.358 71.242 C 78.358 72.441,80.571 73.881,82.414 73.881 C 84.301 73.881,83.752 71.670,81.668 70.877 C 79.055 69.884,78.358 69.961,78.358 71.242 M314.739 70.664 C 313.397 71.014,312.867 73.881,314.144 73.881 C 315.699 73.881,318.657 72.090,318.657 71.149 C 318.657 70.164,317.297 69.995,314.739 70.664 M85.075 74.272 C 85.075 75.389,87.864 76.866,89.974 76.866 C 91.541 76.866,91.281 74.806,89.601 73.907 C 87.467 72.764,85.075 72.958,85.075 74.272 M306.530 73.940 C 304.783 74.958,304.865 76.866,306.655 76.866 C 309.074 76.866,310.448 76.026,310.448 74.547 C 310.448 72.988,308.645 72.709,306.530 73.940 M58.955 76.377 C 58.955 77.728,61.386 79.851,62.932 79.851 C 64.632 79.851,64.502 78.220,62.678 76.658 C 60.886 75.124,58.955 74.978,58.955 76.377 M333.115 77.277 C 331.262 80.106,333.055 81.759,335.098 79.104 C 335.888 78.078,336.541 76.819,336.551 76.306 C 336.579 74.684,334.413 75.296,333.115 77.277 M47.900 78.545 C 48.265 82.324,51.493 82.538,51.493 78.783 C 51.493 76.422,51.275 76.119,49.580 76.119 C 47.871 76.119,47.692 76.378,47.900 78.545 M92.537 77.119 C 92.537 78.164,95.555 79.851,97.423 79.851 C 99.245 79.851,98.629 77.621,96.593 76.847 C 93.950 75.842,92.537 75.937,92.537 77.119 M299.440 76.889 C 297.589 77.633,297.134 79.851,298.832 79.851 C 300.942 79.851,303.731 78.374,303.731 77.257 C 303.731 76.000,302.017 75.853,299.440 76.889 M344.776 78.731 C 344.776 80.846,345.060 81.343,346.269 81.343 C 347.477 81.343,347.761 80.846,347.761 78.731 C 347.761 76.617,347.477 76.119,346.269 76.119 C 345.060 76.119,344.776 76.617,344.776 78.731 M100.746 79.783 C 100.746 80.509,101.602 81.493,102.647 81.970 C 105.309 83.183,105.970 83.058,105.970 81.343 C 105.970 80.522,105.884 79.851,105.779 79.851 C 105.673 79.851,104.498 79.538,103.167 79.157 C 101.087 78.560,100.746 78.648,100.746 79.783 M291.604 79.619 C 290.218 79.981,289.754 82.836,291.082 82.836 C 292.410 82.836,296.269 80.601,296.269 79.832 C 296.269 79.096,294.000 78.993,291.604 79.619 M64.196 82.276 C 64.228 84.105,66.733 86.564,67.851 85.865 C 68.754 85.301,68.723 84.914,67.648 83.273 C 66.336 81.271,64.167 80.645,64.196 82.276 M107.463 82.481 C 107.463 83.598,110.252 85.075,112.362 85.075 C 114.131 85.075,113.570 83.138,111.532 82.209 C 108.933 81.025,107.463 81.123,107.463 82.481 M284.515 82.113 C 282.656 82.860,282.211 85.075,283.920 85.075 C 285.788 85.075,288.806 83.388,288.806 82.343 C 288.806 81.211,287.000 81.114,284.515 82.113 M329.131 82.787 C 328.057 84.792,328.166 85.821,329.451 85.821 C 330.539 85.821,332.090 83.656,332.090 82.139 C 332.090 80.791,329.948 81.260,329.131 82.787 M48.030 84.703 C 47.262 86.706,48.427 89.552,50.014 89.552 C 51.241 89.552,51.493 89.045,51.493 86.567 C 51.493 83.435,49.026 82.108,48.030 84.703 M344.776 86.567 C 344.776 89.055,345.025 89.552,346.269 89.552 C 347.512 89.552,347.761 89.055,347.761 86.567 C 347.761 84.080,347.512 83.582,346.269 83.582 C 345.025 83.582,344.776 84.080,344.776 86.567 M115.672 85.174 C 115.672 86.281,118.604 88.806,119.890 88.806 C 121.669 88.806,121.079 85.298,119.216 84.799 C 116.702 84.125,115.672 84.234,115.672 85.174 M277.184 84.899 C 276.095 85.645,275.309 87.932,275.996 88.356 C 276.926 88.932,281.343 86.452,281.343 85.355 C 281.343 84.271,278.549 83.965,277.184 84.899 M122.388 88.392 C 122.388 89.558,125.134 91.045,127.287 91.045 C 128.395 91.045,128.787 89.146,127.799 88.565 C 125.784 87.379,122.388 87.270,122.388 88.392 M269.590 88.224 C 267.803 89.086,267.281 91.052,268.843 91.035 C 271.296 91.008,273.134 90.016,273.134 88.719 C 273.134 87.156,272.103 87.012,269.590 88.224 M68.657 89.096 C 68.657 91.004,71.437 93.754,72.405 92.804 C 73.064 92.156,72.966 91.482,71.999 90.005 C 70.635 87.924,68.657 87.386,68.657 89.096 M324.440 89.473 C 322.737 91.200,322.778 92.537,324.535 92.537 C 326.016 92.537,327.078 91.520,327.846 89.366 C 328.469 87.618,326.199 87.689,324.440 89.473 M130.276 90.960 C 129.727 91.850,131.271 93.050,133.773 93.678 C 135.356 94.075,135.821 93.925,135.821 93.018 C 135.821 91.036,131.272 89.349,130.276 90.960 M262.127 90.825 C 260.538 91.131,259.593 94.030,261.083 94.030 C 262.894 94.030,266.418 92.256,266.418 91.345 C 266.418 90.313,265.417 90.191,262.127 90.825 M48.247 92.355 C 47.417 93.699,48.726 97.015,50.087 97.015 C 51.196 97.015,51.493 96.464,51.493 94.403 C 51.493 91.910,49.355 90.562,48.247 92.355 M344.776 94.403 C 344.776 96.517,345.060 97.015,346.269 97.015 C 347.477 97.015,347.761 96.517,347.761 94.403 C 347.761 92.289,347.477 91.791,346.269 91.791 C 345.060 91.791,344.776 92.289,344.776 94.403 M138.060 93.943 C 138.060 95.240,139.898 96.232,142.351 96.258 C 144.011 96.277,143.339 94.295,141.383 93.403 C 138.747 92.203,138.060 92.314,138.060 93.943 M254.664 93.448 C 252.613 94.438,252.452 96.269,254.417 96.269 C 256.835 96.269,258.209 95.429,258.209 93.950 C 258.209 92.380,257.180 92.235,254.664 93.448 M73.134 95.357 C 73.134 96.722,75.564 99.254,76.874 99.254 C 77.926 99.254,77.743 96.877,76.573 95.336 C 75.286 93.640,73.134 93.653,73.134 95.357 M319.582 95.512 C 318.333 97.513,318.414 99.254,319.757 99.254 C 320.684 99.254,323.134 95.761,323.134 94.440 C 323.134 93.375,320.403 94.199,319.582 95.512 M144.776 96.522 C 144.776 97.567,147.794 99.254,149.662 99.254 C 151.484 99.254,150.868 97.024,148.832 96.250 C 146.189 95.245,144.776 95.340,144.776 96.522 M246.828 96.328 C 245.577 97.057,244.977 99.254,246.029 99.254 C 247.650 99.254,251.493 97.311,251.493 96.492 C 251.493 95.345,248.685 95.247,246.828 96.328 M152.985 99.547 C 152.985 101.367,154.214 102.239,156.777 102.239 C 158.909 102.239,158.508 100.499,156.042 99.041 C 153.226 97.378,152.985 97.418,152.985 99.547 M240.112 99.073 C 237.611 100.624,237.443 102.239,239.783 102.239 C 242.210 102.239,244.376 100.487,243.801 98.989 C 243.216 97.462,242.692 97.474,240.112 99.073 M48.507 102.612 C 48.507 104.726,48.792 105.224,50.000 105.224 C 51.208 105.224,51.493 104.726,51.493 102.612 C 51.493 100.498,51.208 100.000,50.000 100.000 C 48.792 100.000,48.507 100.498,48.507 102.612 M344.776 102.612 C 344.776 104.726,345.060 105.224,346.269 105.224 C 347.477 105.224,347.761 104.726,347.761 102.612 C 347.761 100.498,347.477 100.000,346.269 100.000 C 345.060 100.000,344.776 100.498,344.776 102.612 M78.382 102.052 C 78.411 103.665,80.092 105.970,81.239 105.970 C 81.707 105.970,82.079 105.382,82.066 104.664 C 82.037 103.051,80.356 100.746,79.209 100.746 C 78.741 100.746,78.369 101.334,78.382 102.052 M315.341 102.405 C 313.902 104.459,313.848 105.970,315.213 105.970 C 316.276 105.970,318.657 102.894,318.657 101.519 C 318.657 100.136,316.532 100.704,315.341 102.405 M159.701 102.539 C 159.701 103.450,163.226 105.224,165.037 105.224 C 166.258 105.224,165.659 103.031,164.228 102.265 C 162.167 101.162,159.701 101.311,159.701 102.539 M231.903 102.299 C 230.281 103.243,230.188 105.224,231.765 105.224 C 233.608 105.224,235.821 103.784,235.821 102.586 C 235.821 101.331,233.817 101.184,231.903 102.299 M167.685 104.206 C 166.507 105.384,170.072 108.209,172.737 108.209 C 173.786 108.209,172.970 105.351,171.828 105.022 C 171.110 104.816,170.001 104.430,169.364 104.166 C 168.727 103.901,167.971 103.919,167.685 104.206 M225.187 104.701 C 222.908 105.602,222.401 107.468,224.440 107.452 C 227.242 107.431,229.104 106.506,229.104 105.137 C 229.104 103.584,228.254 103.489,225.187 104.701 M82.090 107.534 C 82.090 108.681,85.030 112.687,85.872 112.687 C 86.820 112.687,86.746 110.910,85.701 108.617 C 84.852 106.753,82.090 105.925,82.090 107.534 M175.373 107.810 C 175.373 109.008,177.586 110.448,179.429 110.448 C 181.073 110.448,180.885 108.415,179.154 107.489 C 177.096 106.388,175.373 106.534,175.373 107.810 M217.351 107.486 C 215.358 108.287,215.101 110.448,216.998 110.448 C 218.556 110.448,221.642 108.436,221.642 107.420 C 221.642 106.553,219.594 106.584,217.351 107.486 M310.261 108.559 C 308.780 110.597,308.622 111.646,309.698 112.311 C 310.582 112.857,314.179 109.177,314.179 107.727 C 314.179 106.085,311.673 106.618,310.261 108.559 M48.507 110.448 C 48.507 112.935,48.756 113.433,50.000 113.433 C 51.244 113.433,51.493 112.935,51.493 110.448 C 51.493 107.960,51.244 107.463,50.000 107.463 C 48.756 107.463,48.507 107.960,48.507 110.448 M344.776 110.502 C 344.776 112.994,345.012 113.498,346.082 113.295 C 348.165 112.900,348.381 107.463,346.314 107.463 C 345.013 107.463,344.776 107.931,344.776 110.502 M182.090 110.857 C 182.090 112.486,186.511 114.273,187.782 113.157 C 188.554 112.480,188.439 112.055,187.200 111.007 C 185.257 109.365,182.090 109.271,182.090 110.857 M209.515 110.216 C 208.217 110.555,207.692 113.025,208.776 113.695 C 209.806 114.332,214.179 112.035,214.179 110.857 C 214.179 109.717,212.375 109.469,209.515 110.216 M190.299 113.699 C 190.299 114.345,190.970 115.232,191.791 115.672 C 192.612 116.111,193.284 117.169,193.284 118.024 C 193.284 119.295,193.589 119.480,194.963 119.044 C 197.275 118.311,198.542 118.280,200.933 118.900 C 202.676 119.351,202.985 119.201,202.985 117.906 C 202.985 116.966,203.701 116.109,204.851 115.672 C 206.849 114.912,207.432 112.687,205.632 112.687 C 204.089 112.687,200.746 114.300,200.746 115.045 C 200.746 116.113,196.107 115.733,195.232 114.593 C 193.939 112.911,190.299 112.251,190.299 113.699 M248.123 114.258 C 246.488 115.122,244.142 116.432,242.910 117.169 C 241.679 117.906,238.657 119.591,236.194 120.913 C 233.731 122.235,230.795 124.092,229.668 125.040 C 228.542 125.987,226.918 126.985,226.061 127.257 C 225.203 127.530,221.649 129.400,218.162 131.413 C 214.675 133.427,211.624 135.075,211.381 135.075 C 211.137 135.075,210.306 135.647,209.532 136.347 C 208.759 137.047,205.575 139.021,202.456 140.734 L 196.786 143.849 192.484 141.327 C 190.118 139.941,187.844 138.806,187.432 138.806 C 187.019 138.806,185.696 137.976,184.491 136.962 C 183.286 135.948,179.650 133.717,176.411 132.004 C 173.172 130.291,166.828 126.649,162.313 123.911 C 152.658 118.057,145.193 114.179,143.577 114.179 C 142.227 114.179,129.360 120.887,125.010 123.859 C 123.363 124.985,118.159 128.004,113.447 130.569 C 108.734 133.134,103.923 136.037,102.755 137.019 C 101.587 138.002,100.314 138.806,99.926 138.806 C 99.537 138.806,96.719 140.233,93.664 141.978 L 88.108 145.149 88.084 177.479 C 88.064 203.510,88.254 210.003,89.058 210.807 C 90.251 211.999,95.099 214.939,103.731 219.702 C 107.220 221.627,111.720 224.214,113.731 225.451 C 115.741 226.687,119.939 229.066,123.059 230.737 C 126.179 232.408,130.193 234.750,131.978 235.943 C 133.764 237.135,136.867 238.943,138.873 239.959 L 142.521 241.808 142.716 273.245 L 142.910 304.682 148.485 307.599 C 151.551 309.204,154.239 310.809,154.460 311.165 C 154.680 311.522,157.209 313.050,160.079 314.562 C 168.316 318.899,173.214 321.670,177.239 324.267 C 179.291 325.592,182.817 327.626,185.075 328.786 C 187.332 329.947,191.326 332.199,193.950 333.790 C 196.574 335.380,198.925 336.385,199.174 336.023 C 199.604 335.397,204.064 332.860,214.925 327.062 C 217.593 325.638,220.112 324.069,220.522 323.576 C 220.933 323.083,224.291 321.055,227.985 319.069 C 239.681 312.782,241.159 311.932,242.192 310.900 C 242.747 310.344,245.737 308.588,248.836 306.997 L 254.471 304.104 254.474 272.262 L 254.478 240.420 257.276 238.720 C 258.815 237.784,260.243 236.817,260.448 236.570 C 260.653 236.323,265.354 233.650,270.896 230.629 C 276.437 227.608,281.310 224.731,281.725 224.236 C 282.141 223.740,284.491 222.314,286.949 221.067 C 290.886 219.068,297.344 215.397,305.039 210.783 L 307.465 209.328 307.278 176.592 L 307.090 143.855 300.746 140.467 C 297.257 138.604,294.222 136.808,294.001 136.475 C 293.647 135.942,285.103 131.123,276.493 126.601 C 274.851 125.738,272.911 124.524,272.183 123.902 C 271.455 123.280,268.768 121.659,266.213 120.300 C 263.658 118.941,259.498 116.672,256.968 115.258 C 251.543 112.224,251.896 112.264,248.123 114.258 M86.567 114.173 C 86.567 115.332,89.711 118.657,90.806 118.657 C 92.123 118.657,92.048 117.504,90.586 115.272 C 89.409 113.477,86.567 112.699,86.567 114.173 M305.758 115.600 C 304.171 118.287,304.164 118.657,305.701 118.657 C 307.166 118.657,308.898 116.556,308.931 114.739 C 308.968 112.712,307.177 113.198,305.758 115.600 M268.951 124.779 C 277.614 129.768,289.319 136.503,294.963 139.746 L 305.224 145.641 305.224 176.814 L 305.224 207.987 279.069 223.112 C 264.684 231.431,252.510 238.281,252.015 238.335 C 251.521 238.389,244.988 234.918,237.498 230.622 L 223.881 222.811 223.881 207.815 L 223.881 192.819 211.007 185.396 L 198.134 177.972 197.933 162.224 C 197.780 150.195,197.956 146.296,198.679 145.716 C 199.201 145.299,206.175 141.167,214.179 136.535 C 222.183 131.902,233.769 125.166,239.925 121.566 C 246.082 117.965,251.588 115.174,252.160 115.363 C 252.732 115.553,260.288 119.790,268.951 124.779 M48.649 118.470 C 48.805 120.357,49.245 121.269,50.000 121.269 C 50.755 121.269,51.195 120.357,51.351 118.470 C 51.552 116.043,51.372 115.672,50.000 115.672 C 48.628 115.672,48.448 116.043,48.649 118.470 M154.922 122.111 C 161.039 125.652,170.243 130.970,175.373 133.928 C 180.504 136.886,187.472 140.905,190.858 142.859 L 197.015 146.411 197.015 161.546 L 197.015 176.682 185.261 183.390 C 178.797 187.079,172.423 190.730,171.098 191.504 L 168.688 192.910 168.486 209.297 L 168.284 225.683 156.343 232.606 C 149.776 236.414,143.980 239.534,143.462 239.541 C 142.605 239.551,136.794 236.290,107.836 219.543 C 102.500 216.458,96.287 212.883,94.030 211.599 L 89.925 209.265 89.731 178.126 L 89.536 146.988 92.716 145.097 C 94.465 144.056,102.612 139.328,110.821 134.590 C 119.030 129.851,129.608 123.670,134.328 120.854 C 144.701 114.665,141.749 114.485,154.922 122.111 M344.776 118.204 C 344.776 119.766,345.205 120.900,345.896 121.165 C 346.775 121.503,347.015 120.959,347.015 118.633 C 347.015 116.498,346.703 115.672,345.896 115.672 C 345.120 115.672,344.776 116.450,344.776 118.204 M187.500 118.821 C 185.396 119.836,185.308 121.642,187.362 121.642 C 189.533 121.642,191.791 120.297,191.791 119.004 C 191.791 117.738,189.912 117.658,187.500 118.821 M205.224 119.316 C 205.224 120.613,207.062 121.605,209.515 121.632 C 211.175 121.650,210.503 119.668,208.547 118.777 C 205.912 117.576,205.224 117.687,205.224 119.316 M91.808 120.709 C 91.831 122.579,94.410 125.687,95.420 125.063 C 96.629 124.316,96.433 123.018,94.818 121.082 C 93.143 119.075,91.785 118.906,91.808 120.709 M178.191 121.483 C 175.262 123.616,174.443 126.125,176.679 126.111 C 181.133 126.083,183.582 125.147,183.582 123.471 C 183.582 118.991,182.274 118.509,178.191 121.483 M213.216 120.723 C 210.467 123.761,212.768 125.796,219.216 126.031 C 222.829 126.163,222.333 124.810,217.268 120.709 C 215.249 119.075,214.706 119.076,213.216 120.723 M301.672 120.885 C 300.630 122.554,300.429 125.373,301.352 125.373 C 302.352 125.373,305.007 121.340,304.668 120.336 C 304.197 118.939,302.718 119.210,301.672 120.885 M48.825 124.129 C 48.070 126.098,48.812 129.478,50.000 129.478 C 50.804 129.478,51.119 128.655,51.119 126.555 C 51.119 123.595,49.633 122.023,48.825 124.129 M344.920 126.248 C 345.248 130.701,347.015 130.959,347.015 126.555 C 347.015 123.956,346.736 123.134,345.853 123.134 C 344.949 123.134,344.741 123.828,344.920 126.248 M95.820 128.020 C 95.558 129.065,95.467 130.005,95.619 130.110 C 95.771 130.214,97.013 131.205,98.378 132.314 C 102.791 135.895,103.901 134.912,101.764 129.316 C 100.262 125.382,96.678 124.600,95.820 128.020 M294.578 129.764 C 293.866 131.769,293.284 133.616,293.284 133.869 C 293.284 135.146,296.701 133.339,300.994 129.793 C 302.126 128.858,299.713 126.119,297.757 126.119 C 296.176 126.119,295.664 126.706,294.578 129.764 M48.651 134.515 C 48.812 136.735,49.217 137.687,50.000 137.687 C 50.783 137.687,51.188 136.735,51.349 134.515 C 51.552 131.711,51.395 131.343,50.000 131.343 C 48.605 131.343,48.448 131.711,48.651 134.515 M344.776 134.249 C 344.776 136.143,345.166 137.303,345.896 137.583 C 346.788 137.926,347.015 137.336,347.015 134.678 C 347.015 132.211,346.724 131.343,345.896 131.343 C 345.092 131.343,344.776 132.164,344.776 134.249 M48.507 142.537 C 48.507 145.025,48.756 145.522,50.000 145.522 C 51.244 145.522,51.493 145.025,51.493 142.537 C 51.493 140.050,51.244 139.552,50.000 139.552 C 48.756 139.552,48.507 140.050,48.507 142.537 M344.776 142.537 C 344.776 144.693,345.087 145.522,345.896 145.522 C 346.704 145.522,347.015 144.693,347.015 142.537 C 347.015 140.381,346.704 139.552,345.896 139.552 C 345.087 139.552,344.776 140.381,344.776 142.537 M48.825 148.009 C 48.017 150.115,48.828 153.335,50.233 153.602 C 51.394 153.822,51.552 153.410,51.352 150.681 C 51.119 147.493,49.628 145.917,48.825 148.009 M345.274 147.512 C 344.225 148.562,344.741 153.731,345.896 153.731 C 346.725 153.731,347.015 152.861,347.015 150.373 C 347.015 147.239,346.459 146.327,345.274 147.512 M221.439 154.291 C 221.279 154.599,222.334 159.804,223.783 165.858 C 227.341 180.724,228.464 180.998,232.096 167.888 C 234.988 157.448,235.020 157.451,237.351 168.470 C 239.911 180.567,241.289 180.420,245.044 167.645 C 248.726 155.124,248.975 153.731,247.539 153.731 C 246.295 153.731,245.775 155.073,243.202 164.925 C 241.588 171.110,240.299 173.998,240.299 171.432 C 240.299 167.060,236.358 153.731,235.065 153.731 C 233.665 153.731,233.392 154.431,230.173 166.231 C 229.529 168.591,228.817 171.026,228.591 171.642 C 228.365 172.257,227.385 169.235,226.413 164.925 C 225.441 160.616,224.468 156.334,224.249 155.410 C 223.872 153.816,222.061 153.094,221.439 154.291 M251.977 160.562 C 251.711 164.319,251.493 169.525,251.493 172.130 L 251.493 176.866 258.209 176.866 C 263.682 176.866,264.925 176.658,264.925 175.746 C 264.925 174.858,263.847 174.627,259.701 174.627 L 254.478 174.627 254.478 170.537 C 254.478 165.906,255.696 165.034,260.826 165.996 C 263.138 166.430,263.433 166.307,263.433 164.904 C 263.433 163.497,263.040 163.336,259.888 163.444 C 254.169 163.640,254.374 163.778,254.623 159.888 L 254.851 156.343 259.515 156.521 C 263.732 156.682,264.179 156.557,264.179 155.215 C 264.179 153.860,263.670 153.731,258.321 153.731 L 252.462 153.731 251.977 160.562 M267.164 155.597 C 267.164 156.426,268.035 156.716,270.522 156.716 L 273.881 156.716 273.881 167.164 C 273.881 177.065,273.958 177.612,275.352 177.612 C 276.735 177.612,276.836 176.995,277.031 167.351 L 277.239 157.090 280.784 156.862 C 283.272 156.702,284.328 156.313,284.328 155.556 C 284.328 154.678,282.733 154.478,275.746 154.478 C 268.615 154.478,267.164 154.667,267.164 155.597 M49.021 155.706 C 47.717 157.009,48.498 161.194,50.045 161.194 C 51.361 161.194,51.549 160.798,51.351 158.453 C 51.129 155.825,50.106 154.620,49.021 155.706 M344.776 158.209 C 344.776 160.365,345.087 161.194,345.896 161.194 C 346.704 161.194,347.015 160.365,347.015 158.209 C 347.015 156.053,346.704 155.224,345.896 155.224 C 345.087 155.224,344.776 156.053,344.776 158.209 M116.231 156.390 C 115.924 156.706,115.672 161.779,115.672 167.662 L 115.672 178.358 120.709 178.357 C 138.163 178.353,139.540 157.240,122.157 156.150 C 119.206 155.965,116.539 156.073,116.231 156.390 M138.657 167.165 C 138.452 177.415,138.543 178.360,139.739 178.359 C 140.849 178.358,141.045 177.629,141.045 173.507 L 141.045 168.657 143.603 168.657 C 146.896 168.657,148.134 169.961,149.247 174.599 C 150.056 177.971,152.246 180.043,152.235 177.425 C 152.226 175.401,150.535 170.451,149.426 169.204 C 148.352 167.996,148.389 167.759,149.864 166.385 C 155.129 161.480,151.490 155.970,142.985 155.970 L 138.881 155.970 138.657 167.165 M155.236 156.530 C 155.243 156.838,156.788 159.944,158.669 163.433 C 161.867 169.362,162.065 170.056,161.713 174.067 C 161.374 177.921,161.480 178.358,162.757 178.358 C 164.011 178.358,164.179 177.780,164.179 173.473 C 164.179 169.024,164.487 168.053,167.624 162.614 C 169.519 159.329,170.857 156.429,170.597 156.169 C 169.870 155.442,168.652 156.970,165.606 162.431 L 162.812 167.441 159.973 161.706 C 157.608 156.925,155.186 154.279,155.236 156.530 M126.857 158.578 C 135.776 163.190,131.739 176.855,121.455 176.863 L 117.910 176.866 117.910 167.662 C 117.910 162.600,118.134 158.234,118.408 157.960 C 119.315 157.054,124.666 157.445,126.857 158.578 M148.367 158.984 C 151.681 162.072,148.627 167.487,143.831 167.024 C 141.421 166.791,141.418 166.786,141.196 162.127 L 140.974 157.463 143.854 157.463 C 145.720 157.463,147.308 157.998,148.367 158.984 M49.005 163.930 C 48.731 164.204,48.507 165.571,48.507 166.967 C 48.507 170.079,51.674 170.380,52.110 167.310 C 52.462 164.825,50.378 162.557,49.005 163.930 M344.776 166.418 C 344.776 168.574,345.087 169.403,345.896 169.403 C 346.704 169.403,347.015 168.574,347.015 166.418 C 347.015 164.262,346.704 163.433,345.896 163.433 C 345.087 163.433,344.776 164.262,344.776 166.418 M48.507 174.627 C 48.507 177.403,48.677 177.692,50.187 177.477 C 51.563 177.282,51.866 176.767,51.866 174.627 C 51.866 172.486,51.563 171.972,50.187 171.776 C 48.677 171.562,48.507 171.850,48.507 174.627 M344.776 174.627 C 344.776 176.783,345.087 177.612,345.896 177.612 C 346.704 177.612,347.015 176.783,347.015 174.627 C 347.015 172.471,346.704 171.642,345.896 171.642 C 345.087 171.642,344.776 172.471,344.776 174.627 M196.844 194.177 L 196.642 209.250 190.299 212.926 C 174.274 222.211,171.293 223.881,170.740 223.881 C 170.415 223.881,170.149 217.074,170.149 208.756 L 170.149 193.631 182.649 186.395 C 189.524 182.415,195.576 179.146,196.098 179.131 C 196.840 179.110,197.002 182.369,196.844 194.177 M48.507 182.463 C 48.507 184.751,48.738 185.075,50.373 185.075 C 52.008 185.075,52.239 184.751,52.239 182.463 C 52.239 180.174,52.008 179.851,50.373 179.851 C 48.738 179.851,48.507 180.174,48.507 182.463 M344.776 182.463 C 344.776 184.287,345.114 185.075,345.896 185.075 C 346.677 185.075,347.015 184.287,347.015 182.463 C 347.015 180.638,346.677 179.851,345.896 179.851 C 345.114 179.851,344.776 180.638,344.776 182.463 M210.158 187.127 L 221.628 193.657 221.635 207.276 C 221.639 214.767,221.403 220.896,221.110 220.896 C 220.482 220.896,202.784 210.824,199.813 208.776 L 197.761 207.361 197.761 193.979 C 197.761 186.619,197.970 180.597,198.225 180.597 C 198.480 180.597,203.850 183.535,210.158 187.127 M48.507 190.672 C 48.507 192.960,48.738 193.284,50.373 193.284 C 52.008 193.284,52.239 192.960,52.239 190.672 C 52.239 188.383,52.008 188.060,50.373 188.060 C 48.738 188.060,48.507 188.383,48.507 190.672 M344.776 190.672 C 344.776 192.496,345.114 193.284,345.896 193.284 C 346.677 193.284,347.015 192.496,347.015 190.672 C 347.015 188.847,346.677 188.060,345.896 188.060 C 345.114 188.060,344.776 188.847,344.776 190.672 M48.649 198.321 C 49.011 202.698,52.239 202.913,52.239 198.559 C 52.239 195.798,52.065 195.522,50.328 195.522 C 48.576 195.522,48.437 195.755,48.649 198.321 M344.776 198.507 C 344.776 200.663,345.087 201.493,345.896 201.493 C 346.704 201.493,347.015 200.663,347.015 198.507 C 347.015 196.352,346.704 195.522,345.896 195.522 C 345.087 195.522,344.776 196.352,344.776 198.507 M48.507 206.343 C 48.507 208.632,48.738 208.955,50.373 208.955 C 52.008 208.955,52.239 208.632,52.239 206.343 C 52.239 204.055,52.008 203.731,50.373 203.731 C 48.738 203.731,48.507 204.055,48.507 206.343 M344.776 206.343 C 344.776 208.167,345.114 208.955,345.896 208.955 C 346.677 208.955,347.015 208.167,347.015 206.343 C 347.015 204.519,346.677 203.731,345.896 203.731 C 345.114 203.731,344.776 204.519,344.776 206.343 M209.206 215.753 C 215.020 219.082,220.235 222.239,220.795 222.769 C 222.020 223.928,222.504 223.585,207.173 232.416 L 196.062 238.816 184.225 232.007 C 171.195 224.512,171.370 224.682,174.813 222.907 C 176.147 222.220,181.772 218.980,187.313 215.708 C 199.460 208.535,196.588 208.529,209.206 215.753 M48.507 213.317 C 48.507 214.815,50.708 217.164,52.111 217.164 C 53.078 217.164,53.193 216.152,52.515 213.619 C 51.939 211.469,48.507 211.211,48.507 213.317 M344.776 213.060 C 344.776 213.675,344.440 214.179,344.030 214.179 C 343.619 214.179,343.284 214.851,343.284 215.672 C 343.284 217.334,344.746 217.642,346.119 216.269 C 347.407 214.981,347.250 211.940,345.896 211.940 C 345.280 211.940,344.776 212.444,344.776 213.060 M54.478 217.495 C 54.478 218.686,57.253 220.896,58.748 220.896 C 60.351 220.896,59.810 218.899,57.862 217.623 C 55.586 216.132,54.478 216.090,54.478 217.495 M338.246 217.720 C 335.770 218.953,334.950 220.896,336.905 220.896 C 339.030 220.896,341.791 219.141,341.791 217.791 C 341.791 216.152,341.413 216.145,338.246 217.720 M61.194 221.741 C 61.194 222.994,64.201 225.373,65.786 225.373 C 67.579 225.373,67.536 224.252,65.672 222.388 C 64.061 220.777,61.194 220.363,61.194 221.741 M331.157 221.934 C 329.572 223.137,329.432 225.373,330.941 225.373 C 332.073 225.373,335.075 222.562,335.075 221.501 C 335.075 220.560,332.608 220.833,331.157 221.934 M238.378 232.561 L 252.239 240.494 252.239 271.617 L 252.239 302.740 242.351 308.397 C 236.912 311.508,226.586 317.472,219.403 321.652 C 196.318 335.083,198.552 334.010,196.342 332.728 C 182.079 324.457,162.028 312.935,155.224 309.099 C 150.504 306.438,146.054 303.754,145.336 303.134 C 144.132 302.095,144.030 299.630,144.030 271.537 L 144.030 241.066 146.828 239.281 C 153.506 235.023,169.235 226.119,170.081 226.119 C 170.589 226.119,176.506 229.310,183.228 233.209 C 189.950 237.108,195.719 240.293,196.046 240.287 C 196.374 240.280,202.687 236.761,210.075 232.467 C 217.463 228.173,223.735 224.652,224.012 224.643 C 224.290 224.634,230.755 228.197,238.378 232.561 M67.910 226.407 C 67.910 227.470,70.987 229.851,72.362 229.851 C 73.600 229.851,73.253 227.951,71.770 226.608 C 70.110 225.106,67.910 224.991,67.910 226.407 M324.440 226.546 C 322.446 227.628,321.593 229.851,323.171 229.851 C 324.794 229.851,328.358 227.530,328.358 226.473 C 328.358 225.092,327.077 225.116,324.440 226.546 M75.373 230.701 C 75.373 231.848,77.678 233.529,79.291 233.558 C 80.009 233.571,80.597 233.199,80.597 232.732 C 80.597 231.585,78.292 229.904,76.679 229.874 C 75.961 229.861,75.373 230.234,75.373 230.701 M317.060 231.279 C 316.091 232.065,315.557 232.967,315.873 233.284 C 316.779 234.193,320.481 232.569,320.756 231.141 C 321.088 229.422,319.268 229.489,317.060 231.279 M81.774 234.234 C 81.201 235.162,84.923 238.984,86.024 238.599 C 86.528 238.422,86.826 237.656,86.686 236.895 C 86.249 234.526,82.762 232.636,81.774 234.234 M310.588 235.104 C 308.800 236.770,308.414 238.808,309.888 238.802 C 311.487 238.796,315.205 235.384,314.629 234.452 C 313.833 233.164,312.427 233.391,310.588 235.104 M88.806 239.806 C 88.806 240.747,91.763 242.537,93.319 242.537 C 94.600 242.537,94.063 240.369,92.586 239.578 C 90.583 238.507,88.806 238.613,88.806 239.806 M303.545 239.845 C 302.826 240.390,302.239 241.219,302.239 241.687 C 302.239 242.155,302.826 242.527,303.545 242.514 C 305.158 242.484,307.463 240.803,307.463 239.657 C 307.463 238.510,305.158 238.620,303.545 239.845 M95.522 243.640 C 95.522 245.094,98.940 247.295,100.355 246.752 C 101.896 246.161,101.111 244.585,98.718 243.470 C 96.127 242.262,95.522 242.294,95.522 243.640 M296.828 243.576 C 295.325 244.717,295.072 247.027,296.455 246.990 C 297.701 246.957,300.746 244.374,300.746 243.351 C 300.746 242.235,298.418 242.369,296.828 243.576 M290.439 247.790 C 287.223 250.787,289.156 252.888,292.579 250.116 C 293.666 249.236,294.108 248.295,293.805 247.504 C 293.182 245.881,292.419 245.946,290.439 247.790 M102.239 247.761 C 102.239 248.906,105.084 251.493,106.343 251.493 C 107.806 251.493,107.776 249.674,106.290 248.188 C 104.988 246.885,102.239 246.596,102.239 247.761 M108.955 252.593 C 108.955 254.218,113.367 256.339,114.451 255.234 C 115.086 254.588,114.856 254.010,113.537 252.932 C 111.449 251.226,108.955 251.041,108.955 252.593 M282.732 252.932 C 281.405 254.016,281.181 254.586,281.823 255.240 C 282.859 256.295,286.567 254.173,286.567 252.526 C 286.567 251.059,284.795 251.247,282.732 252.932 M116.418 256.590 C 116.418 258.049,119.423 260.068,120.875 259.584 C 122.029 259.199,118.935 255.224,117.483 255.224 C 116.897 255.224,116.418 255.839,116.418 256.590 M277.032 256.386 C 275.229 257.648,274.793 259.701,276.326 259.701 C 277.822 259.701,280.597 257.492,280.597 256.301 C 280.597 254.896,279.108 254.931,277.032 256.386 M122.388 260.779 C 122.388 262.100,125.227 264.179,127.032 264.179 C 128.852 264.179,128.695 262.834,126.679 261.152 C 124.671 259.477,122.388 259.278,122.388 260.779 M269.432 261.335 C 267.610 263.291,267.499 264.179,269.079 264.179 C 271.121 264.179,273.134 262.684,273.134 261.168 C 273.134 259.224,271.323 259.305,269.432 261.335 M129.832 265.347 C 128.746 268.205,128.777 268.241,133.279 269.288 C 138.543 270.512,138.870 270.142,135.739 266.501 C 132.761 263.038,130.852 262.665,129.832 265.347 M260.847 265.749 C 256.381 269.670,257.132 270.716,263.376 269.275 C 267.279 268.374,267.832 267.568,266.392 264.876 C 265.307 262.850,263.895 263.072,260.847 265.749 M158.537 266.640 C 158.332 267.173,158.259 272.295,158.373 278.021 L 158.582 288.433 162.060 288.658 C 170.542 289.206,175.209 283.303,170.231 278.325 C 168.395 276.489,168.234 276.034,169.152 275.272 C 172.486 272.505,172.022 268.305,168.206 266.711 C 165.025 265.381,159.037 265.338,158.537 266.640 M177.363 266.169 C 176.487 267.045,176.819 282.662,177.757 284.722 C 179.576 288.715,186.194 290.116,189.807 287.273 C 192.513 285.145,193.414 281.376,193.143 273.317 C 192.817 263.619,191.505 264.201,191.031 274.254 C 190.613 283.114,189.804 285.478,186.796 286.622 C 181.379 288.681,179.104 284.994,179.104 274.153 C 179.104 266.392,178.753 264.779,177.363 266.169 M199.105 276.938 C 198.889 287.785,199.125 289.435,200.746 288.433 C 202.044 287.631,201.720 265.672,200.411 265.672 C 199.523 265.672,199.288 267.697,199.105 276.938 M207.840 274.777 C 207.552 279.825,207.433 284.963,207.576 286.194 L 207.836 288.433 213.745 288.433 C 221.438 288.433,222.694 286.746,215.246 286.416 L 210.242 286.194 210.158 276.184 C 210.046 262.722,208.578 261.832,207.840 274.777 M223.881 277.519 L 223.881 288.619 226.196 289.082 C 235.042 290.852,241.783 285.860,241.788 277.536 C 241.793 269.790,237.913 266.545,228.545 266.460 L 223.881 266.418 223.881 277.519 M166.450 267.928 C 170.350 270.015,169.736 273.909,165.273 275.381 C 161.337 276.680,160.448 276.018,160.448 271.790 C 160.448 267.030,162.412 265.766,166.450 267.928 M234.621 269.042 C 243.710 273.355,239.835 287.313,229.549 287.313 L 226.119 287.313 226.119 278.109 C 226.119 273.047,226.343 268.682,226.617 268.408 C 227.510 267.515,232.183 267.885,234.621 269.042 M168.038 278.847 C 171.425 281.912,168.803 286.567,163.690 286.567 L 160.448 286.567 160.448 282.090 L 160.448 277.612 163.561 277.612 C 165.410 277.612,167.227 278.113,168.038 278.847 M26.273 326.544 C 23.977 328.152,24.690 328.836,28.302 328.491 C 31.394 328.197,32.439 326.700,30.163 325.826 C 28.471 325.177,28.135 325.239,26.273 326.544 M77.065 326.306 C 77.316 326.957,76.517 327.239,74.415 327.239 C 72.501 327.239,71.277 327.619,71.051 328.285 C 70.799 329.026,71.135 329.216,72.206 328.936 C 75.276 328.133,75.795 329.604,73.274 331.959 C 70.266 334.769,70.283 334.859,73.881 335.203 C 75.522 335.359,76.866 335.226,76.866 334.908 C 76.866 334.589,76.310 334.328,75.631 334.328 C 74.492 334.328,74.495 334.219,75.662 332.929 C 76.358 332.160,76.830 331.110,76.710 330.597 C 76.591 330.084,76.964 329.493,77.541 329.284 C 78.392 328.975,78.503 329.636,78.130 332.784 C 77.728 336.183,77.829 336.635,78.947 336.423 C 80.994 336.034,81.171 328.631,79.178 326.774 C 77.444 325.159,76.547 324.960,77.065 326.306 M0.322 328.740 C 0.016 330.373,0.168 331.766,0.726 332.438 C 1.218 333.031,1.404 333.867,1.140 334.296 C 0.531 335.280,1.582 335.287,4.139 334.315 C 5.626 333.750,6.038 333.177,5.750 332.076 C 5.500 331.119,5.734 330.597,6.413 330.597 C 6.990 330.597,7.463 331.269,7.463 332.090 C 7.463 332.910,7.882 333.621,8.396 333.668 C 8.909 333.716,9.759 333.799,10.286 333.855 C 10.813 333.910,11.484 334.336,11.779 334.802 C 12.073 335.267,12.985 335.816,13.806 336.021 C 14.796 336.268,14.482 336.423,12.873 336.481 C 10.154 336.578,9.492 338.382,11.940 339.022 C 15.253 339.888,18.162 337.549,16.405 335.432 C 15.840 334.752,15.956 334.151,16.817 333.289 C 19.898 330.209,14.820 326.415,11.397 329.240 C 10.458 330.015,10.139 330.026,9.891 329.291 C 9.381 327.776,3.899 328.097,3.514 329.664 C 3.338 330.382,3.330 329.879,3.496 328.545 C 3.956 324.864,1.016 325.044,0.322 328.740 M21.824 326.615 C 20.648 327.089,21.362 328.358,22.805 328.358 C 23.397 328.358,23.881 327.854,23.881 327.239 C 23.881 326.088,23.453 325.958,21.824 326.615 M63.859 328.785 C 63.214 329.430,62.687 329.598,62.687 329.158 C 62.687 328.718,61.307 328.358,59.622 328.358 C 57.027 328.358,56.627 328.559,57.012 329.664 C 57.438 330.888,57.404 330.890,56.474 329.698 C 55.669 328.665,54.578 328.486,50.689 328.749 C 48.052 328.926,45.018 329.077,43.946 329.084 C 40.169 329.108,42.626 333.502,46.455 333.572 C 46.763 333.578,47.015 332.910,47.015 332.090 C 47.015 329.415,50.308 330.158,51.152 333.022 C 51.719 334.949,52.318 335.499,54.069 335.698 C 55.281 335.836,56.708 336.508,57.241 337.191 C 58.141 338.346,58.280 338.341,59.224 337.127 C 59.782 336.409,60.754 335.821,61.383 335.821 C 62.012 335.821,62.731 335.290,62.980 334.640 C 63.679 332.818,63.529 332.573,62.323 333.574 C 61.704 334.088,60.412 334.294,59.400 334.040 C 58.402 333.789,57.472 333.928,57.332 334.347 C 57.028 335.259,52.239 334.451,52.239 333.489 C 52.239 333.130,53.727 332.836,55.547 332.836 C 58.199 332.836,58.949 332.540,59.328 331.343 C 59.900 329.542,60.866 329.413,61.496 331.055 C 61.789 331.819,62.501 332.117,63.442 331.871 C 64.656 331.554,64.925 331.855,64.925 333.528 C 64.925 335.937,65.436 336.611,66.850 336.068 C 67.605 335.779,67.686 335.303,67.150 334.303 C 66.669 333.402,66.675 332.257,67.169 330.956 C 68.397 327.727,66.296 326.348,63.859 328.785 M32.181 329.032 C 31.615 329.391,31.383 330.057,31.665 330.514 C 31.947 330.970,31.822 331.343,31.387 331.343 C 30.953 331.343,30.597 331.847,30.597 332.463 C 30.597 333.105,31.270 333.582,32.177 333.582 C 33.389 333.582,33.665 333.235,33.366 332.090 C 33.076 330.982,33.343 330.597,34.398 330.597 C 35.323 330.597,35.821 331.119,35.821 332.090 C 35.821 332.919,36.318 333.582,36.940 333.582 C 37.556 333.582,38.065 333.162,38.071 332.649 C 38.079 332.027,38.317 332.086,38.786 332.830 C 39.713 334.295,41.301 332.818,40.902 330.863 C 40.698 329.865,40.068 329.535,38.649 329.684 C 37.566 329.797,36.466 329.545,36.206 329.124 C 35.630 328.192,33.580 328.146,32.181 329.032 M20.419 330.224 C 19.885 331.615,20.588 333.582,21.618 333.582 C 22.042 333.582,22.388 332.575,22.388 331.343 C 22.388 329.000,21.157 328.300,20.419 330.224 M23.442 330.872 C 22.882 332.332,23.645 333.582,25.096 333.582 C 25.829 333.582,26.140 333.015,25.985 331.961 C 25.695 329.994,24.049 329.289,23.442 330.872 M15.090 331.903 C 15.552 333.685,15.000 335.075,13.831 335.075 C 12.548 335.075,11.894 332.434,12.922 331.406 C 14.072 330.257,14.700 330.401,15.090 331.903 M46.232 334.351 C 45.679 334.693,45.817 335.028,46.640 335.344 C 48.654 336.117,50.894 335.891,50.579 334.947 C 50.248 333.953,47.487 333.575,46.232 334.351 M22.388 336.878 C 22.388 337.528,22.920 338.060,23.570 338.060 C 24.220 338.060,24.618 337.661,24.456 337.174 C 23.995 335.790,22.388 335.560,22.388 336.878 M35.733 347.575 C 35.684 347.882,35.684 348.386,35.733 348.694 C 35.781 349.002,35.317 349.254,34.701 349.254 C 34.053 349.254,33.561 349.960,33.532 350.933 L 33.481 352.612 32.671 350.933 C 32.226 350.009,31.460 349.254,30.970 349.254 C 30.480 349.254,29.714 350.009,29.269 350.933 C 28.475 352.580,28.458 352.582,28.409 351.037 C 28.361 349.559,27.979 349.467,22.206 349.544 L 16.054 349.627 15.966 353.172 C 15.889 356.236,16.077 356.716,17.354 356.716 C 18.463 356.716,18.734 356.345,18.440 355.224 C 18.190 354.266,18.418 353.731,19.076 353.731 C 19.678 353.731,19.926 354.191,19.677 354.840 C 19.083 356.389,22.723 357.736,24.676 356.690 C 26.639 355.639,26.499 354.340,24.440 354.507 C 21.570 354.739,20.896 354.516,20.896 353.335 C 20.896 351.621,23.199 351.043,24.257 352.491 C 25.587 354.309,33.947 354.258,35.015 352.425 C 35.739 351.182,35.777 351.182,35.798 352.425 C 35.831 354.334,37.900 354.023,38.279 352.052 L 38.603 350.373 38.704 352.052 C 38.816 353.901,41.045 354.434,41.045 352.612 C 41.045 351.996,41.381 351.493,41.791 351.493 C 42.201 351.493,42.537 351.996,42.537 352.612 C 42.537 353.228,42.789 353.756,43.097 353.787 C 43.405 353.817,44.391 353.980,45.289 354.148 C 46.427 354.361,47.064 354.005,47.392 352.973 C 48.016 351.005,49.719 351.085,50.248 353.108 C 50.865 355.465,52.896 353.601,52.421 351.115 C 51.986 348.841,46.854 348.340,45.671 350.455 C 45.053 351.559,44.961 351.559,44.538 350.455 C 44.222 349.633,43.151 349.254,41.148 349.254 C 39.233 349.254,38.071 348.866,37.790 348.134 C 37.347 346.979,35.889 346.583,35.733 347.575 M0.150 352.378 L 0.373 357.086 4.257 357.259 C 6.392 357.354,8.353 357.086,8.614 356.665 C 8.931 356.152,9.438 356.188,10.141 356.772 C 11.011 357.494,11.194 357.217,11.194 355.177 C 11.194 353.669,11.826 352.036,12.817 350.980 L 14.440 349.253 8.899 349.382 C 5.676 349.458,2.641 349.127,1.642 348.591 C -0.073 347.670,-0.074 347.671,0.150 352.378 M27.612 355.224 C 27.612 355.634,28.284 355.970,29.104 355.970 C 29.925 355.970,30.597 355.634,30.597 355.224 C 30.597 354.813,29.925 354.478,29.104 354.478 C 28.284 354.478,27.612 354.813,27.612 355.224 M35.821 355.535 C 35.821 356.185,36.353 356.716,37.002 356.716 C 37.652 356.716,38.051 356.318,37.889 355.830 C 37.427 354.446,35.821 354.217,35.821 355.535 M38.806 355.597 C 38.806 356.213,39.142 356.716,39.552 356.716 C 39.963 356.716,40.299 356.213,40.299 355.597 C 40.299 354.981,39.963 354.478,39.552 354.478 C 39.142 354.478,38.806 354.981,38.806 355.597 M48.881 355.922 L 47.388 356.515 48.881 356.902 C 49.893 357.165,49.593 357.317,47.948 357.376 C 44.162 357.511,44.689 359.701,48.507 359.701 C 50.149 359.701,51.517 359.450,51.548 359.142 C 51.578 358.834,51.744 357.826,51.916 356.903 C 52.247 355.131,51.487 354.886,48.881 355.922 M8.286 367.863 C 6.303 369.089,7.706 371.257,10.641 371.500 C 12.256 371.634,13.433 371.398,13.433 370.941 C 13.433 370.505,12.761 370.149,11.940 370.149 C 11.119 370.149,10.448 369.665,10.448 369.074 C 10.448 367.654,9.491 367.118,8.286 367.863 M24.646 368.856 C 24.129 370.141,23.964 370.223,23.928 369.216 C 23.872 367.674,22.712 367.496,21.865 368.900 C 21.537 369.444,20.633 370.123,19.856 370.410 C 17.532 371.266,19.098 371.864,24.058 372.013 C 26.628 372.090,29.791 372.393,31.086 372.687 C 33.816 373.307,34.687 372.427,34.011 369.734 C 33.517 367.764,31.343 367.191,31.343 369.030 C 31.343 369.652,30.680 370.149,29.851 370.149 C 29.030 370.149,28.353 370.569,28.347 371.082 C 28.339 371.742,28.141 371.708,27.670 370.963 C 27.303 370.385,27.160 369.505,27.351 369.007 C 27.542 368.510,27.162 367.897,26.507 367.646 C 25.713 367.341,25.092 367.745,24.646 368.856 M1.276 370.149 C 1.062 370.970,1.210 371.642,1.606 371.642 C 2.003 371.642,2.119 371.978,1.866 372.388 C 1.612 372.799,1.948 373.134,2.612 373.134 C 3.276 373.134,3.612 372.799,3.358 372.388 C 3.105 371.978,3.421 371.642,4.060 371.642 C 5.450 371.642,5.560 370.784,4.328 369.552 C 2.993 368.217,1.716 368.467,1.276 370.149 " stroke="none" fill="#000000" fill-rule="evenodd"></path><path id="path1" d="" stroke="none" fill="#ffffff" fill-rule="evenodd"></path><path id="path2" d="M18.094 7.657 C 17.692 8.166,16.963 9.422,16.476 10.448 C 15.640 12.207,15.655 12.231,16.750 10.865 C 17.388 10.068,17.910 9.145,17.910 8.813 C 17.910 7.262,20.070 8.454,20.902 10.464 C 21.416 11.704,22.153 12.914,22.540 13.154 C 22.927 13.393,22.553 12.233,21.707 10.576 C 19.906 7.046,19.096 6.391,18.094 7.657 M377.073 7.649 C 375.839 9.245,375.168 10.936,376.333 9.515 C 377.908 7.593,378.016 7.686,381.762 14.179 C 383.656 17.463,385.356 20.149,385.539 20.149 C 385.963 20.149,384.883 18.080,381.156 11.754 C 377.856 6.153,378.067 6.365,377.073 7.649 M369.731 19.963 C 363.670 30.497,364.018 29.851,364.407 29.851 C 364.582 29.851,366.325 27.080,368.281 23.694 C 370.237 20.308,372.665 16.110,373.677 14.366 C 374.688 12.621,375.349 11.194,375.145 11.194 C 374.942 11.194,372.505 15.140,369.731 19.963 M13.806 14.925 C 13.169 16.157,12.816 17.164,13.021 17.164 C 13.227 17.164,13.915 16.157,14.552 14.925 C 15.189 13.694,15.542 12.687,15.337 12.687 C 15.132 12.687,14.443 13.694,13.806 14.925 M7.915 25.093 C 5.614 29.044,3.731 32.625,3.731 33.050 C 3.731 33.958,10.421 45.522,10.947 45.522 C 11.143 45.522,10.203 43.591,8.858 41.231 C 7.513 38.871,5.917 36.068,5.310 35.001 C 4.131 32.928,4.182 32.800,10.987 21.082 C 12.000 19.338,12.664 17.910,12.463 17.910 C 12.262 17.910,10.216 21.143,7.915 25.093 M26.283 19.776 C 26.494 20.187,28.251 23.293,30.189 26.679 L 33.713 32.836 30.189 38.993 C 28.251 42.379,26.491 45.453,26.277 45.824 C 26.064 46.196,26.277 46.260,26.750 45.967 C 27.906 45.252,27.835 45.910,26.473 48.545 C 25.299 50.815,24.134 51.615,24.897 49.627 C 25.538 47.956,24.803 48.276,23.832 50.090 C 23.237 51.202,23.229 51.522,23.806 51.165 C 24.928 50.472,24.837 51.160,23.452 53.838 C 22.806 55.087,22.108 55.938,21.899 55.730 C 21.691 55.522,21.929 54.567,22.429 53.609 C 23.747 51.077,22.433 52.508,20.503 55.705 L 18.854 58.438 16.819 54.965 C 14.384 50.812,13.535 50.331,15.628 54.291 C 18.361 59.463,18.486 59.550,20.202 57.463 C 21.685 55.658,21.720 55.652,21.265 57.276 L 20.795 58.955 34.624 58.955 L 48.452 58.955 53.202 50.933 C 60.131 39.230,63.467 33.119,63.120 32.770 C 62.952 32.601,56.620 32.561,49.050 32.680 L 35.286 32.898 34.406 34.829 C 33.922 35.891,33.358 36.592,33.153 36.387 C 32.948 36.182,33.156 35.188,33.616 34.179 C 34.350 32.568,34.022 31.627,30.916 26.434 C 27.944 21.464,24.922 17.121,26.283 19.776 M386.940 23.134 C 387.577 24.366,388.266 25.373,388.471 25.373 C 388.676 25.373,388.323 24.366,387.687 23.134 C 387.050 21.903,386.361 20.896,386.156 20.896 C 385.950 20.896,386.304 21.903,386.940 23.134 M390.686 29.570 L 392.708 33.020 391.019 36.026 C 390.090 37.679,389.632 38.841,390.001 38.607 C 390.370 38.374,391.294 37.015,392.054 35.586 L 393.436 32.989 391.423 29.554 C 390.316 27.665,389.243 26.119,389.037 26.119 C 388.832 26.119,389.574 27.672,390.686 29.570 M363.184 31.095 C 362.910 31.368,362.687 32.249,362.687 33.052 C 362.687 34.166,362.457 34.320,361.715 33.705 C 360.451 32.655,333.955 32.398,333.955 33.436 C 333.955 33.838,337.146 39.741,341.045 46.554 L 348.134 58.940 362.142 58.948 L 376.150 58.955 374.642 56.000 C 372.929 52.642,372.783 51.934,373.955 52.658 C 374.532 53.014,374.524 52.695,373.929 51.583 C 372.903 49.666,372.280 49.507,372.846 51.306 C 373.196 52.421,373.084 52.400,372.076 51.163 C 370.699 49.473,370.513 48.183,371.757 48.952 C 372.231 49.245,372.444 49.181,372.230 48.809 C 372.017 48.438,370.256 45.364,368.318 41.978 C 366.380 38.591,364.644 35.821,364.461 35.821 C 364.277 35.821,364.501 36.521,364.960 37.377 C 365.418 38.233,365.622 39.104,365.414 39.312 C 365.206 39.521,364.507 38.669,363.861 37.420 C 362.575 34.933,362.384 34.053,363.246 34.586 C 363.554 34.776,363.806 33.957,363.806 32.765 C 363.806 31.572,363.778 30.597,363.744 30.597 C 363.710 30.597,363.458 30.821,363.184 31.095 M61.940 33.941 C 61.940 34.138,60.822 36.069,59.455 38.232 C 58.089 40.395,55.515 44.851,53.737 48.134 C 51.959 51.418,49.864 55.028,49.082 56.157 L 47.660 58.209 35.024 58.209 C 28.074 58.209,22.388 58.028,22.388 57.806 C 22.388 57.036,25.590 51.101,27.606 48.134 C 28.722 46.493,31.057 42.547,32.795 39.366 L 35.956 33.582 48.948 33.582 C 56.094 33.582,61.940 33.743,61.940 33.941 M367.557 45.336 C 371.240 51.800,374.366 57.341,374.502 57.649 C 374.639 57.957,368.900 58.209,361.748 58.209 L 348.745 58.209 346.634 54.291 C 345.473 52.136,342.572 47.145,340.188 43.199 C 337.803 39.253,335.642 35.475,335.384 34.804 C 334.961 33.701,336.181 33.582,347.887 33.582 L 360.859 33.582 367.557 45.336 M30.556 41.376 C 29.248 43.694,28.028 45.441,27.846 45.259 C 27.663 45.076,28.584 43.031,29.892 40.713 C 31.200 38.395,32.420 36.648,32.602 36.831 C 32.784 37.013,31.864 39.059,30.556 41.376 M368.585 43.645 C 369.856 45.897,370.888 47.996,370.879 48.310 C 370.858 49.016,365.712 40.888,365.688 40.112 C 365.651 38.854,366.391 39.758,368.585 43.645 M387.687 41.791 C 387.050 43.022,386.697 44.030,386.902 44.030 C 387.107 44.030,387.796 43.022,388.433 41.791 C 389.070 40.560,389.423 39.552,389.217 39.552 C 389.012 39.552,388.323 40.560,387.687 41.791 M382.010 51.561 L 378.094 58.345 376.713 56.598 L 375.332 54.851 376.219 56.903 C 377.390 59.615,378.003 59.496,380.079 56.157 C 383.248 51.058,386.682 44.776,386.301 44.776 C 386.094 44.776,384.163 47.829,382.010 51.561 M138.229 118.576 C 135.654 120.144,133.304 121.698,133.005 122.030 C 132.545 122.540,138.801 119.213,142.588 116.933 C 143.426 116.428,144.592 116.752,146.693 118.071 C 150.518 120.474,152.985 121.772,152.985 121.382 C 152.985 120.965,144.062 115.664,143.417 115.698 C 143.138 115.712,140.804 117.008,138.229 118.576 M120.385 128.947 C 117.026 130.895,114.004 132.788,113.669 133.155 C 112.934 133.959,112.983 133.934,120.709 129.512 C 124.095 127.574,126.866 125.850,126.866 125.681 C 126.866 125.193,126.809 125.222,120.385 128.947 M164.552 128.155 C 164.963 128.587,167.313 130.039,169.776 131.382 C 172.239 132.726,173.918 133.471,173.507 133.039 C 173.097 132.607,170.746 131.155,168.284 129.812 C 165.821 128.468,164.142 127.723,164.552 128.155 M101.306 139.979 C 98.516 141.493,98.686 142.123,101.493 140.672 C 102.724 140.035,103.731 139.355,103.731 139.160 C 103.731 138.680,103.651 138.707,101.306 139.979 M183.582 139.068 C 183.582 139.241,186.435 141.016,189.923 143.012 L 196.264 146.642 196.242 161.567 L 196.220 176.493 188.409 180.846 C 184.112 183.240,180.597 185.359,180.597 185.554 C 180.597 185.749,180.849 185.771,181.157 185.602 C 181.465 185.434,185.159 183.363,189.366 181.002 L 197.015 176.708 197.015 161.573 L 197.015 146.439 191.978 143.471 C 185.724 139.787,183.582 138.663,183.582 139.068 M94.030 144.266 L 89.925 146.735 89.925 177.990 L 89.925 209.245 92.351 210.661 C 93.685 211.440,94.776 211.887,94.776 211.655 C 94.776 211.423,93.769 210.711,92.537 210.075 L 90.299 208.917 90.299 178.021 L 90.299 147.124 94.403 144.776 C 96.660 143.485,98.507 142.285,98.507 142.109 C 98.507 141.595,98.326 141.682,94.030 144.266 M115.858 155.718 C 115.169 155.996,114.925 159.094,114.925 167.600 L 114.925 179.104 117.724 179.180 C 123.214 179.328,125.782 178.982,128.348 177.746 C 131.257 176.345,134.346 172.246,134.296 169.852 C 134.274 168.827,133.916 169.255,133.262 171.089 C 131.295 176.601,128.216 178.358,120.526 178.358 L 115.632 178.358 115.838 167.351 L 116.045 156.343 119.030 156.100 C 126.534 155.489,132.117 158.125,133.509 162.935 C 134.021 164.703,134.211 164.890,134.261 163.677 C 134.489 158.183,122.548 153.019,115.858 155.718 M138.387 156.193 C 138.183 156.725,138.120 161.847,138.247 167.573 L 138.479 177.985 138.642 166.978 L 138.806 155.970 142.948 155.970 C 147.123 155.970,151.035 157.374,151.739 159.126 C 152.045 159.886,152.133 159.887,152.180 159.131 C 152.363 156.198,139.442 153.445,138.387 156.193 M154.270 155.681 C 154.018 155.932,154.857 158.031,156.132 160.345 C 159.397 166.268,160.314 166.956,157.542 161.402 C 154.906 156.122,154.868 155.970,156.199 155.970 C 156.735 155.970,158.326 158.350,159.733 161.258 C 162.555 167.093,163.067 167.702,163.719 166.002 C 163.965 165.362,163.844 165.044,163.448 165.289 C 163.056 165.531,161.544 163.366,160.089 160.477 C 157.611 155.556,155.848 154.103,154.270 155.681 M166.791 158.955 C 165.751 161.007,165.067 162.687,165.271 162.687 C 165.475 162.687,166.315 161.366,167.138 159.752 C 167.962 158.138,168.998 156.593,169.442 156.319 C 171.391 155.114,170.831 157.054,167.624 162.614 C 162.842 170.906,163.296 171.251,168.217 163.064 C 172.363 156.167,172.592 155.224,170.118 155.224 C 169.144 155.224,168.073 156.426,166.791 158.955 M118.408 157.960 C 118.134 158.234,117.910 162.600,117.910 167.662 L 117.910 176.866 121.455 176.863 C 131.739 176.855,135.776 163.190,126.857 158.578 C 124.666 157.445,119.315 157.054,118.408 157.960 M141.196 162.127 C 141.455 167.559,144.067 168.949,147.819 165.649 L 149.627 164.060 147.782 165.239 C 143.703 167.845,141.791 166.912,141.791 162.313 C 141.791 156.757,148.407 156.602,149.474 162.133 L 149.797 163.806 149.898 162.156 C 150.052 159.658,147.225 157.463,143.854 157.463 L 140.974 157.463 141.196 162.127 M126.456 159.265 C 134.821 162.760,131.034 176.119,121.679 176.119 L 118.657 176.119 118.657 167.164 L 118.657 158.209 121.293 158.209 C 122.742 158.209,125.066 158.684,126.456 159.265 M151.994 162.604 C 151.751 163.818,150.800 165.513,149.879 166.370 C 148.241 167.897,148.235 167.956,149.622 169.226 C 150.859 170.359,150.919 170.364,150.096 169.266 C 149.310 168.219,149.407 167.757,150.677 166.487 C 152.192 164.972,153.496 161.456,152.800 160.760 C 152.600 160.560,152.237 161.389,151.994 162.604 M160.198 167.164 C 160.532 167.780,161.011 170.131,161.263 172.388 L 161.721 176.493 161.831 172.717 C 161.902 170.255,161.532 168.438,160.766 167.493 C 160.119 166.697,159.864 166.549,160.198 167.164 M141.170 171.828 L 141.296 175.000 141.588 172.201 C 141.945 168.789,145.290 168.127,147.346 171.062 C 147.985 171.974,148.507 172.334,148.507 171.861 C 148.507 170.205,146.138 168.657,143.603 168.657 C 141.071 168.657,141.046 168.689,141.170 171.828 M149.491 177.239 C 149.723 179.526,153.012 179.756,152.899 177.477 C 152.835 176.213,152.720 176.098,152.471 177.052 C 152.283 177.771,151.675 178.358,151.119 178.358 C 150.564 178.358,149.936 177.771,149.724 177.052 C 149.425 176.035,149.373 176.076,149.491 177.239 M191.231 181.421 C 189.076 182.678,187.313 183.870,187.313 184.072 C 187.313 184.273,189.117 183.406,191.322 182.144 C 193.527 180.883,195.542 179.851,195.800 179.851 C 196.058 179.851,196.269 186.391,196.269 194.384 L 196.269 208.917 194.030 210.075 C 192.799 210.711,191.791 211.403,191.791 211.613 C 191.791 211.822,192.491 211.618,193.347 211.160 C 194.204 210.702,195.074 210.497,195.283 210.705 C 195.491 210.914,194.639 211.612,193.390 212.258 C 190.721 213.639,190.024 213.734,190.710 212.625 C 190.984 212.181,190.165 212.357,188.888 213.017 C 186.354 214.328,185.800 215.120,187.873 214.468 C 188.988 214.117,188.967 214.230,187.731 215.238 C 186.040 216.615,184.750 216.801,185.519 215.556 C 185.812 215.082,185.748 214.866,185.376 215.075 C 180.468 217.841,173.881 221.881,173.881 222.126 C 173.881 222.299,174.581 222.066,175.437 221.608 C 176.293 221.149,177.174 220.955,177.395 221.176 C 177.616 221.397,176.580 222.158,175.092 222.867 C 171.311 224.670,171.098 224.456,184.225 232.007 L 196.062 238.816 207.173 232.416 C 222.504 223.585,222.020 223.928,220.795 222.769 C 217.702 219.844,198.372 209.642,196.814 210.113 C 195.456 210.523,195.321 210.435,196.082 209.636 C 196.764 208.920,197.015 204.682,197.015 193.881 C 197.015 177.231,197.314 177.875,191.231 181.421 M184.142 185.501 C 181.352 187.015,181.522 187.645,184.328 186.194 C 185.560 185.557,186.567 184.877,186.567 184.682 C 186.567 184.202,186.487 184.229,184.142 185.501 M175.560 190.472 L 170.149 193.590 170.149 208.735 C 170.149 217.065,170.401 223.881,170.709 223.881 C 171.017 223.881,171.269 217.099,171.269 208.810 L 171.269 193.739 175.891 191.065 C 180.153 188.600,182.054 187.284,181.281 187.333 C 181.110 187.344,178.535 188.756,175.560 190.472 M171.828 190.321 L 167.910 192.568 167.910 208.951 L 167.910 225.335 165.672 226.493 C 163.207 227.767,162.692 228.544,164.739 227.901 C 165.854 227.550,165.833 227.663,164.596 228.670 C 162.885 230.065,161.619 230.228,162.407 228.953 C 162.712 228.459,161.305 229.007,159.280 230.171 C 155.422 232.389,152.840 234.416,155.847 232.867 C 156.806 232.373,157.761 232.139,157.969 232.347 C 158.177 232.555,157.326 233.254,156.077 233.900 C 153.399 235.285,152.711 235.376,153.404 234.254 C 153.761 233.677,153.441 233.685,152.329 234.280 C 150.515 235.251,150.195 235.986,151.866 235.344 C 153.854 234.582,153.053 235.747,150.783 236.921 C 148.213 238.251,147.491 238.354,148.142 237.301 C 148.400 236.883,147.421 237.109,145.967 237.803 C 143.792 238.840,142.956 238.906,141.251 238.176 C 139.293 237.338,139.261 237.354,140.672 238.464 C 142.110 239.597,143.461 239.598,146.642 238.468 C 147.709 238.089,147.549 238.398,146.082 239.554 L 144.030 241.169 144.030 271.588 C 144.030 299.632,144.132 302.095,145.336 303.134 C 146.054 303.754,150.504 306.438,155.224 309.099 C 162.028 312.935,182.079 324.457,196.342 332.728 C 198.552 334.010,196.318 335.083,219.403 321.652 C 226.586 317.472,236.912 311.508,242.351 308.397 L 252.239 302.740 252.239 271.626 L 252.239 240.511 240.112 233.582 C 233.442 229.771,227.099 226.147,226.017 225.529 C 224.103 224.435,223.673 224.622,210.284 232.352 C 202.714 236.722,196.279 240.299,195.985 240.299 C 195.691 240.299,189.899 237.078,183.114 233.143 C 173.002 227.277,170.418 226.076,168.784 226.479 C 167.178 226.876,166.972 226.787,167.724 226.023 C 168.412 225.324,168.657 220.854,168.657 208.993 L 168.658 192.910 172.389 190.815 C 174.441 189.663,176.119 188.571,176.119 188.390 C 176.119 187.876,175.988 187.935,171.828 190.321 M206.540 215.202 C 210.947 217.817,215.977 220.780,217.719 221.788 L 220.887 223.620 213.615 227.601 C 209.616 229.791,204.051 233.009,201.250 234.752 L 196.156 237.922 188.563 233.435 C 184.387 230.967,179.375 228.138,177.425 227.148 C 172.782 224.790,172.704 224.926,181.542 219.980 C 185.743 217.629,191.026 214.549,193.284 213.136 C 198.486 209.879,197.243 209.685,206.540 215.202 M100.746 215.189 C 100.746 215.471,104.983 218.011,113.619 222.905 C 113.927 223.080,114.179 223.064,114.179 222.871 C 114.179 222.588,109.942 220.049,101.306 215.154 C 100.998 214.980,100.746 214.996,100.746 215.189 M185.075 216.727 C 185.075 217.221,178.162 220.948,177.841 220.627 C 177.681 220.467,178.992 219.468,180.753 218.407 C 183.832 216.551,185.075 216.068,185.075 216.727 M230.054 228.873 C 233.431 230.798,239.636 234.372,243.843 236.815 L 251.493 241.256 251.493 271.684 L 251.493 302.111 248.321 303.906 C 246.576 304.893,238.601 309.509,230.597 314.162 C 222.593 318.816,212.069 324.904,207.209 327.691 L 198.373 332.759 190.045 328.080 C 185.464 325.507,178.694 321.634,175.000 319.475 C 153.294 306.787,146.633 302.985,146.109 302.985 C 145.786 302.985,145.522 289.059,145.522 272.038 L 145.522 241.091 149.440 238.605 C 151.595 237.238,157.090 234.049,161.651 231.518 L 169.944 226.916 179.188 231.983 C 184.273 234.770,190.138 238.110,192.221 239.405 L 196.010 241.760 204.008 237.111 C 208.407 234.555,214.594 230.905,217.757 229.000 C 220.920 227.096,223.599 225.501,223.711 225.456 C 223.823 225.410,226.678 226.948,230.054 228.873 M120.149 226.383 C 120.149 226.665,124.386 229.205,133.022 234.099 C 133.330 234.274,133.582 234.258,133.582 234.065 C 133.582 233.783,129.345 231.243,120.709 226.349 C 120.401 226.174,120.149 226.190,120.149 226.383 M160.865 230.994 C 160.068 231.597,159.061 232.079,158.626 232.066 C 158.191 232.053,158.488 231.549,159.284 230.946 C 160.081 230.344,161.089 229.861,161.523 229.874 C 161.958 229.888,161.662 230.391,160.865 230.994 M157.092 274.813 C 156.294 289.894,156.011 289.136,162.541 289.399 C 171.185 289.748,176.410 283.058,171.404 278.052 C 169.716 276.365,169.707 276.280,171.031 274.645 C 175.174 269.528,171.100 264.925,162.427 264.925 L 157.616 264.925 157.092 274.813 M176.119 274.601 L 176.119 284.276 178.353 286.820 C 182.285 291.299,188.986 290.856,192.323 285.897 C 193.872 283.596,194.030 282.510,194.030 274.143 L 194.030 264.925 192.238 264.925 C 190.475 264.925,190.438 265.069,189.960 273.694 C 189.338 284.908,188.973 285.821,185.117 285.821 C 181.037 285.821,180.597 284.662,180.597 273.930 L 180.597 264.925 178.358 264.925 L 176.119 264.925 176.119 274.601 M197.929 277.052 L 198.134 289.179 200.076 289.405 C 202.333 289.667,202.985 286.175,202.985 273.832 C 202.985 265.790,202.686 264.925,199.902 264.925 L 197.724 264.925 197.929 277.052 M206.716 277.239 L 206.716 289.552 213.806 289.552 C 220.871 289.552,220.896 289.546,220.896 287.687 C 220.896 285.881,220.734 285.821,215.858 285.822 L 210.821 285.823 211.047 275.374 L 211.273 264.925 208.995 264.925 L 206.716 264.925 206.716 277.239 M225.373 265.556 L 222.761 266.045 222.761 277.985 L 222.761 289.925 226.866 290.159 C 237.548 290.766,244.125 284.849,243.080 275.573 C 242.245 268.172,234.577 263.834,225.373 265.556 M168.206 266.711 C 172.022 268.305,172.486 272.505,169.152 275.272 C 168.234 276.034,168.395 276.489,170.231 278.325 C 175.209 283.303,170.542 289.206,162.060 288.658 L 158.582 288.433 158.373 278.021 C 158.259 272.295,158.332 267.173,158.537 266.640 C 159.037 265.338,165.025 265.381,168.206 266.711 M179.104 274.153 C 179.104 284.994,181.379 288.681,186.796 286.622 C 189.804 285.478,190.613 283.114,191.031 274.254 C 191.505 264.201,192.817 263.619,193.143 273.317 C 193.414 281.376,192.513 285.145,189.807 287.273 C 186.194 290.116,179.576 288.715,177.757 284.722 C 176.819 282.662,176.487 267.045,177.363 266.169 C 178.753 264.779,179.104 266.392,179.104 274.153 M201.493 276.822 C 201.493 287.179,201.077 289.556,199.440 288.550 C 198.291 287.843,199.231 265.672,200.411 265.672 C 201.307 265.672,201.493 267.579,201.493 276.822 M210.158 276.184 L 210.242 286.194 215.246 286.416 C 222.694 286.746,221.438 288.433,213.745 288.433 L 207.836 288.433 207.576 286.194 C 207.041 281.587,208.336 265.589,209.219 265.886 C 209.800 266.081,210.102 269.389,210.158 276.184 M235.795 267.393 C 243.376 270.004,244.058 283.879,236.787 287.547 C 234.027 288.939,229.071 289.657,226.196 289.082 L 223.881 288.619 223.881 277.519 L 223.881 266.418 228.545 266.460 C 231.110 266.483,234.373 266.903,235.795 267.393 M160.945 267.662 C 159.927 268.679,160.414 275.407,161.536 275.838 C 163.198 276.475,167.825 274.688,168.689 273.075 C 170.466 269.753,163.632 264.975,160.945 267.662 M226.617 268.408 C 226.343 268.682,226.119 273.047,226.119 278.109 L 226.119 287.313 229.549 287.313 C 237.486 287.313,242.275 279.093,238.279 272.329 C 236.298 268.975,228.628 266.397,226.617 268.408 M167.458 270.336 C 168.683 272.292,167.128 274.211,164.104 274.474 C 161.597 274.692,161.567 274.659,161.567 271.642 C 161.567 268.248,165.591 267.356,167.458 270.336 M236.066 270.928 C 241.808 275.445,238.322 285.656,230.791 286.380 L 227.239 286.722 227.239 278.064 L 227.239 269.405 230.683 269.404 C 233.023 269.403,234.749 269.892,236.066 270.928 M160.448 282.090 L 160.448 286.567 163.690 286.567 C 167.389 286.567,169.403 284.943,169.403 281.960 C 169.403 279.249,167.204 277.612,163.561 277.612 L 160.448 277.612 160.448 282.090 M167.253 279.773 C 170.066 282.051,168.533 285.372,164.532 285.668 L 161.554 285.889 161.561 282.126 C 161.568 277.828,163.742 276.929,167.253 279.773 M398.497 350.385 C 396.522 352.765,397.188 363.433,399.312 363.433 C 399.690 363.433,400.000 360.243,400.000 356.343 C 400.000 348.807,399.955 348.629,398.497 350.385 " stroke="none" fill="#876322" fill-rule="evenodd"></path><path id="path3" d="M11.381 20.376 C 7.584 27.063,4.478 32.786,4.478 33.093 C 4.478 33.704,9.316 42.341,15.143 52.134 L 18.855 58.372 20.877 55.119 C 21.990 53.330,25.324 47.582,28.287 42.346 L 33.674 32.827 26.725 20.532 C 22.903 13.770,19.440 8.233,19.030 8.227 C 18.619 8.222,15.177 13.688,11.381 20.376 M370.328 20.121 C 366.535 26.675,363.433 32.383,363.433 32.805 C 363.433 33.570,376.486 56.559,377.558 57.680 C 378.066 58.212,392.581 34.232,392.506 32.984 C 392.446 31.984,378.562 8.650,377.895 8.428 C 377.525 8.304,374.120 13.566,370.328 20.121 M32.795 39.366 C 31.057 42.547,28.722 46.493,27.606 48.134 C 25.590 51.101,22.388 57.036,22.388 57.806 C 22.388 58.028,28.074 58.209,35.024 58.209 L 47.660 58.209 49.082 56.157 C 49.864 55.028,51.959 51.418,53.737 48.134 C 55.515 44.851,58.089 40.395,59.455 38.232 C 60.822 36.069,61.940 34.138,61.940 33.941 C 61.940 33.743,56.094 33.582,48.948 33.582 L 35.956 33.582 32.795 39.366 M335.384 34.804 C 335.642 35.475,337.803 39.253,340.188 43.199 C 342.572 47.145,345.473 52.136,346.634 54.291 L 348.745 58.209 361.748 58.209 C 368.900 58.209,374.639 57.957,374.502 57.649 C 374.366 57.341,371.240 51.800,367.557 45.336 L 360.859 33.582 347.887 33.582 C 336.181 33.582,334.961 33.701,335.384 34.804 M131.343 123.280 C 124.981 126.990,113.144 133.873,105.037 138.576 L 90.299 147.126 90.299 177.969 L 90.299 208.812 111.007 220.754 C 122.397 227.322,134.143 234.109,137.108 235.837 C 143.690 239.670,142.960 239.822,156.716 231.758 L 167.537 225.415 167.910 208.905 L 168.284 192.396 179.104 186.092 C 185.056 182.626,191.353 179.065,193.097 178.179 L 196.269 176.568 196.264 161.605 L 196.259 146.642 194.212 145.464 C 193.086 144.816,185.280 140.308,176.866 135.445 C 150.577 120.253,143.796 116.416,143.346 116.476 C 143.107 116.509,137.705 119.570,131.343 123.280 M129.580 157.148 C 141.129 165.771,133.211 180.528,117.724 179.246 L 114.925 179.014 114.925 167.554 C 114.925 159.105,115.170 155.986,115.858 155.680 C 118.207 154.637,127.557 155.638,129.580 157.148 M149.742 156.665 C 153.398 158.894,153.584 166.093,150.017 167.283 C 149.566 167.434,149.845 168.752,150.703 170.522 C 153.216 175.705,153.531 179.285,151.447 178.982 C 150.076 178.783,149.530 177.992,148.811 175.162 C 146.799 167.247,142.256 166.687,141.445 174.254 C 141.006 178.360,140.706 179.104,139.493 179.104 C 138.038 179.104,137.158 157.121,138.557 155.721 C 139.683 154.596,147.420 155.249,149.742 156.665 M160.075 160.448 C 161.522 163.321,162.865 165.672,163.060 165.672 C 163.255 165.672,164.598 163.321,166.045 160.448 C 167.934 156.695,169.081 155.224,170.115 155.224 C 172.592 155.224,172.364 156.165,168.217 163.064 C 164.482 169.277,164.182 170.123,164.181 174.440 C 164.179 178.606,164.020 179.104,162.687 179.104 C 161.344 179.104,161.192 178.600,161.173 174.067 C 161.153 169.428,160.865 168.529,157.524 162.687 C 153.764 156.111,153.583 155.224,156.005 155.224 C 157.039 155.224,158.185 156.695,160.075 160.448 M118.657 167.164 L 118.657 176.119 121.679 176.119 C 127.713 176.119,130.597 173.076,130.597 166.707 C 130.597 160.993,127.548 158.209,121.293 158.209 L 118.657 158.209 118.657 167.164 M141.791 162.313 C 141.791 166.876,143.816 167.903,147.595 165.256 C 151.038 162.845,148.584 158.209,143.864 158.209 C 141.849 158.209,141.791 158.323,141.791 162.313 M183.209 186.797 L 171.269 193.720 171.066 208.427 C 170.955 216.516,171.033 223.134,171.240 223.134 C 171.447 223.134,177.163 219.902,183.942 215.952 L 196.269 208.770 196.269 194.310 C 196.269 186.358,196.017 179.856,195.709 179.862 C 195.401 179.869,189.776 182.989,183.209 186.797 M193.284 213.136 C 191.026 214.549,185.743 217.629,181.542 219.980 C 172.704 224.926,172.782 224.790,177.425 227.148 C 179.375 228.138,184.387 230.967,188.563 233.435 L 196.156 237.922 201.250 234.752 C 204.051 233.009,209.616 229.791,213.615 227.601 L 220.887 223.620 217.719 221.788 C 215.977 220.780,210.947 217.817,206.540 215.202 C 197.243 209.685,198.486 209.879,193.284 213.136 M217.757 229.000 C 214.594 230.905,208.407 234.555,204.008 237.111 L 196.010 241.760 192.221 239.405 C 190.138 238.110,184.273 234.770,179.188 231.983 L 169.944 226.916 161.651 231.518 C 157.090 234.049,151.595 237.238,149.440 238.605 L 145.522 241.091 145.522 272.038 C 145.522 289.059,145.786 302.985,146.109 302.985 C 146.633 302.985,153.294 306.787,175.000 319.475 C 178.694 321.634,185.464 325.507,190.045 328.080 L 198.373 332.759 207.209 327.691 C 212.069 324.904,222.593 318.816,230.597 314.162 C 238.601 309.509,246.576 304.893,248.321 303.906 L 251.493 302.111 251.493 271.684 L 251.493 241.256 243.843 236.815 C 231.137 229.437,223.926 225.369,223.711 225.456 C 223.599 225.501,220.920 227.096,217.757 229.000 M169.350 266.017 C 172.690 267.745,173.452 271.655,171.031 274.645 C 169.707 276.280,169.716 276.365,171.404 278.052 C 176.410 283.058,171.185 289.748,162.541 289.399 C 156.011 289.136,156.294 289.894,157.092 274.813 L 157.616 264.925 162.427 264.925 C 165.190 264.925,168.137 265.390,169.350 266.017 M180.597 273.930 C 180.597 284.662,181.037 285.821,185.117 285.821 C 188.973 285.821,189.338 284.908,189.960 273.694 C 190.438 265.069,190.475 264.925,192.238 264.925 L 194.030 264.925 194.030 274.143 C 194.030 282.510,193.872 283.596,192.323 285.897 C 188.986 290.856,182.285 291.299,178.353 286.820 L 176.119 284.276 176.119 274.601 L 176.119 264.925 178.358 264.925 L 180.597 264.925 180.597 273.930 M202.532 266.106 C 203.130 267.664,203.111 279.169,202.502 285.004 C 202.037 289.444,201.940 289.621,200.076 289.405 L 198.134 289.179 197.929 277.052 L 197.724 264.925 199.902 264.925 C 201.199 264.925,202.262 265.403,202.532 266.106 M211.047 275.374 L 210.821 285.823 215.858 285.822 C 220.734 285.821,220.896 285.881,220.896 287.687 C 220.896 289.546,220.871 289.552,213.806 289.552 L 206.716 289.552 206.716 277.239 L 206.716 264.925 208.995 264.925 L 211.273 264.925 211.047 275.374 M237.265 267.030 C 250.202 273.354,242.253 291.033,226.866 290.159 L 222.761 289.925 222.761 277.985 L 222.761 266.045 225.373 265.556 C 228.971 264.883,234.198 265.531,237.265 267.030 M161.567 271.642 C 161.567 274.659,161.597 274.692,164.104 274.474 C 169.137 274.037,169.137 269.247,164.104 268.809 C 161.597 268.591,161.567 268.624,161.567 271.642 M227.239 278.064 L 227.239 286.722 230.791 286.380 C 241.672 285.333,241.570 269.401,230.683 269.404 L 227.239 269.405 227.239 278.064 M161.561 282.126 L 161.554 285.889 164.532 285.668 C 170.456 285.229,169.519 278.354,163.537 278.361 C 161.670 278.363,161.567 278.559,161.561 282.126 " stroke="none" fill="#f8b333" fill-rule="evenodd"></path><path id="path4" d="" stroke="none" fill="#00ff00" fill-rule="evenodd"></path><path id="path5" d="M21.648 8.006 C 21.652 8.323,24.590 13.619,28.178 19.776 L 34.701 30.970 48.321 31.174 C 55.812 31.285,61.940 31.231,61.940 31.052 C 61.940 30.873,58.951 25.576,55.298 19.281 L 48.656 7.836 35.149 7.632 C 27.720 7.521,21.645 7.688,21.648 8.006 M346.766 10.261 C 343.743 15.069,335.075 30.355,335.075 30.878 C 335.075 31.153,341.162 31.285,348.603 31.174 L 362.132 30.970 368.458 20.149 C 371.937 14.198,374.952 8.909,375.158 8.396 C 375.450 7.670,372.534 7.463,362.030 7.463 L 348.526 7.463 346.766 10.261 M239.925 121.566 C 233.769 125.166,222.183 131.902,214.179 136.535 C 206.175 141.167,199.201 145.299,198.679 145.716 C 197.956 146.296,197.780 150.195,197.933 162.224 L 198.134 177.972 211.007 185.396 L 223.881 192.819 223.881 207.815 L 223.881 222.811 237.498 230.622 C 244.988 234.918,251.521 238.389,252.015 238.335 C 252.510 238.281,264.684 231.431,279.069 223.112 L 305.224 207.987 305.224 176.814 L 305.224 145.641 294.963 139.746 C 289.319 136.503,277.614 129.768,268.951 124.779 C 260.288 119.790,252.732 115.553,252.160 115.363 C 251.588 115.174,246.082 117.965,239.925 121.566 M224.249 155.410 C 224.468 156.334,225.441 160.616,226.413 164.925 C 227.385 169.235,228.365 172.257,228.591 171.642 C 228.817 171.026,229.529 168.591,230.173 166.231 C 233.392 154.431,233.665 153.731,235.065 153.731 C 236.358 153.731,240.299 167.060,240.299 171.432 C 240.299 173.998,241.588 171.110,243.202 164.925 C 245.775 155.073,246.295 153.731,247.539 153.731 C 248.975 153.731,248.726 155.124,245.044 167.645 C 241.289 180.420,239.911 180.567,237.351 168.470 C 235.020 157.451,234.988 157.448,232.096 167.888 C 228.464 180.998,227.341 180.724,223.783 165.858 C 222.334 159.804,221.279 154.599,221.439 154.291 C 222.061 153.094,223.872 153.816,224.249 155.410 M264.179 155.215 C 264.179 156.557,263.732 156.682,259.515 156.521 L 254.851 156.343 254.623 159.888 C 254.374 163.778,254.169 163.640,259.888 163.444 C 263.040 163.336,263.433 163.497,263.433 164.904 C 263.433 166.307,263.138 166.430,260.826 165.996 C 255.696 165.034,254.478 165.906,254.478 170.537 L 254.478 174.627 259.701 174.627 C 263.847 174.627,264.925 174.858,264.925 175.746 C 264.925 176.658,263.682 176.866,258.209 176.866 L 251.493 176.866 251.493 172.130 C 251.493 169.525,251.711 164.319,251.977 160.562 L 252.462 153.731 258.321 153.731 C 263.670 153.731,264.179 153.860,264.179 155.215 M284.328 155.556 C 284.328 156.313,283.272 156.702,280.784 156.862 L 277.239 157.090 277.031 167.351 C 276.836 176.995,276.735 177.612,275.352 177.612 C 273.958 177.612,273.881 177.065,273.881 167.164 L 273.881 156.716 270.522 156.716 C 268.035 156.716,267.164 156.426,267.164 155.597 C 267.164 154.667,268.615 154.478,275.746 154.478 C 282.733 154.478,284.328 154.678,284.328 155.556 M197.761 193.979 L 197.761 207.361 199.813 208.776 C 202.784 210.824,220.482 220.896,221.110 220.896 C 221.403 220.896,221.639 214.767,221.635 207.276 L 221.628 193.657 210.158 187.127 C 203.850 183.535,198.480 180.597,198.225 180.597 C 197.970 180.597,197.761 186.619,197.761 193.979 " stroke="none" fill="#009ee0" fill-rule="evenodd"></path></g></svg>