<?xml version="1.0" encoding="UTF-8" ?>
<!DOCTYPE svg PUBLIC "-//W3C//DTD SVG 1.1//EN" "http://www.w3.org/Graphics/SVG/1.1/DTD/svg11.dtd">
<svg width="447pt" height="468pt" viewBox="0 0 447 468" version="1.1" xmlns="http://www.w3.org/2000/svg">
<path fill="#fefefe" d=" M 0.00 0.00 L 447.00 0.00 L 447.00 468.00 L 0.00 468.00 L 0.00 0.00 Z" />
<path fill="#211545" d=" M 319.17 13.56 C 333.09 10.90 347.83 10.90 361.28 15.74 C 374.97 20.73 387.03 30.91 393.16 44.23 C 384.82 38.06 376.26 31.62 366.09 28.83 C 362.26 27.89 357.83 27.29 354.34 29.52 C 352.58 31.55 352.95 34.46 353.50 36.88 C 355.00 43.21 357.96 49.07 361.19 54.67 C 365.82 62.80 373.49 68.47 380.68 74.18 C 373.33 80.91 365.52 87.36 356.50 91.72 C 352.42 93.52 347.66 95.27 343.25 93.67 C 340.72 92.51 340.68 89.40 341.12 87.05 C 342.18 82.29 344.79 78.06 347.44 74.02 C 337.13 74.33 325.15 73.49 317.84 65.22 C 312.64 59.88 311.42 51.77 313.72 44.82 C 310.86 47.50 308.50 50.95 308.08 54.93 C 307.29 62.25 310.47 69.36 314.77 75.10 C 331.86 99.27 340.83 129.44 337.86 159.04 C 337.43 161.76 337.95 164.46 338.39 167.14 C 342.05 191.75 336.02 218.53 319.03 237.20 C 326.86 223.99 331.71 208.30 329.60 192.89 C 326.19 203.72 320.37 213.67 314.12 223.10 C 307.95 232.58 299.82 240.49 292.18 248.75 C 285.21 243.61 277.88 238.96 270.23 234.88 C 272.01 233.11 273.78 231.32 275.57 229.56 C 295.86 211.27 310.29 186.33 315.28 159.41 C 319.77 135.28 315.39 109.86 304.25 88.09 C 303.98 87.21 303.14 87.50 302.53 87.78 L 303.84 88.23 C 304.89 117.92 302.53 148.63 290.12 176.02 C 281.60 195.08 266.49 211.74 246.81 219.48 C 256.14 209.80 263.49 198.42 269.75 186.58 C 245.14 195.49 220.01 202.91 194.74 209.71 C 195.53 209.30 196.34 208.91 197.16 208.55 C 223.41 198.53 249.52 187.98 274.63 175.37 C 278.88 166.71 281.46 157.29 284.01 148.00 C 259.08 160.89 233.80 173.18 207.78 183.71 C 208.72 183.04 209.67 182.40 210.67 181.82 C 236.23 167.49 260.94 151.68 284.88 134.81 C 285.81 134.10 287.08 133.50 287.04 132.11 C 287.97 126.58 288.43 120.98 288.97 115.40 C 265.83 131.77 242.44 147.89 218.02 162.29 C 222.48 155.69 227.23 149.28 231.77 142.73 C 233.00 140.99 234.14 139.07 236.02 137.95 C 253.62 126.42 270.88 114.36 287.69 101.70 C 288.51 100.97 289.80 100.43 289.86 99.15 C 290.18 93.28 289.91 87.37 290.00 81.49 C 282.61 84.30 275.91 88.56 269.64 93.33 C 274.18 84.18 281.54 76.73 289.75 70.80 C 289.58 68.71 289.43 66.63 289.28 64.54 C 277.43 70.17 266.81 78.09 257.40 87.19 C 264.53 72.63 276.30 60.93 289.01 51.16 C 290.34 50.23 290.53 48.46 291.24 47.10 C 293.06 42.29 296.58 38.42 300.42 35.12 C 286.23 35.23 273.44 43.02 263.10 52.16 C 253.84 60.12 246.52 69.97 239.30 79.73 C 243.96 61.61 255.78 45.82 270.49 34.50 C 284.67 23.63 301.71 16.91 319.17 13.56 Z" />
<path fill="#fefefe" d=" M 330.48 47.51 C 328.95 45.01 331.11 42.54 332.93 40.99 C 335.28 43.89 337.73 46.71 340.02 49.66 C 336.78 50.45 332.60 50.56 330.48 47.51 Z" />
<path fill="#a12928" d=" M 212.35 153.37 C 225.03 139.59 236.68 124.86 249.12 110.85 C 247.81 113.55 245.91 115.89 244.19 118.33 C 216.40 157.68 188.51 196.95 160.72 236.30 C 156.34 242.40 152.08 248.59 147.69 254.68 C 144.17 259.51 137.45 262.57 131.63 260.34 C 127.69 258.56 128.05 253.39 130.06 250.26 C 150.94 225.52 172.13 201.02 193.07 176.33 C 199.54 168.72 206.35 161.36 212.35 153.37 Z" />
<path fill="#a12928" d=" M 191.29 153.32 C 194.63 150.17 197.55 146.57 201.22 143.79 C 169.33 181.47 136.87 218.69 104.83 256.26 C 101.42 260.89 93.28 264.47 89.03 258.99 C 88.13 255.69 89.86 252.43 92.28 250.29 C 108.68 234.05 125.30 218.03 141.69 201.77 C 147.42 196.18 153.37 190.79 158.75 184.85 C 169.89 174.65 180.32 163.71 191.29 153.32 Z" />
<path fill="#211545" d=" M 183.03 170.99 C 192.75 165.06 202.49 159.08 212.35 153.37 C 206.35 161.36 199.54 168.72 193.07 176.33 C 184.54 180.85 175.95 185.33 167.18 189.41 C 172.37 183.20 177.56 176.96 183.03 170.99 Z" />
<path fill="#a12928" d=" M 104.62 213.10 C 117.61 203.15 129.94 192.31 143.14 182.67 C 130.43 195.75 117.17 208.28 104.37 221.28 C 94.22 230.82 84.75 241.07 74.47 250.46 C 71.90 252.32 67.61 253.35 65.19 250.75 C 63.40 248.21 65.06 244.89 67.22 243.16 C 76.00 235.95 85.02 229.01 93.79 221.77 C 97.54 219.06 101.06 216.05 104.62 213.10 Z" />
<path fill="#211545" d=" M 131.45 199.37 C 140.60 194.63 149.58 189.55 158.75 184.85 C 153.37 190.79 147.42 196.18 141.69 201.77 C 134.11 205.04 126.68 208.67 118.98 211.64 C 123.15 207.56 127.09 203.23 131.45 199.37 Z" />
<path fill="#211545" d=" M 73.89 227.71 C 83.96 222.49 94.37 217.95 104.62 213.10 C 101.06 216.05 97.54 219.06 93.79 221.77 C 87.21 223.93 80.68 226.30 73.89 227.71 Z" />
<path fill="#91a8a3" d=" M 166.71 233.83 C 182.52 226.79 199.69 223.08 216.93 222.04 C 235.48 221.09 253.87 226.43 270.23 234.88 C 277.88 238.96 285.21 243.61 292.18 248.75 C 305.29 258.53 317.08 270.06 327.21 282.90 C 329.63 286.13 332.32 289.22 334.03 292.91 C 318.73 281.23 302.93 270.10 286.05 260.79 C 265.84 249.70 243.46 240.45 219.99 241.19 C 205.83 242.07 191.74 244.70 178.29 249.27 C 164.42 253.92 151.23 260.64 136.87 263.78 C 112.76 268.85 87.64 267.23 63.62 262.43 C 71.99 260.72 80.56 260.10 89.03 258.99 C 93.28 264.47 101.42 260.89 104.83 256.26 C 113.37 254.84 121.77 252.72 130.06 250.26 C 128.05 253.39 127.69 258.56 131.63 260.34 C 137.45 262.57 144.17 259.51 147.69 254.68 C 152.08 248.59 156.34 242.40 160.72 236.30 C 162.74 235.55 164.74 234.71 166.71 233.83 Z" />
<path fill="#91a8a3" d=" M 306.75 238.73 C 319.14 251.98 333.65 263.03 348.40 273.49 C 370.53 287.99 394.10 300.13 417.68 312.06 C 411.76 315.05 405.77 317.94 399.65 320.51 C 380.29 327.63 358.57 327.36 339.05 320.97 C 323.42 316.03 308.84 308.18 292.96 304.00 C 289.51 303.16 285.49 302.12 282.31 304.28 C 280.38 305.36 280.03 308.03 280.97 309.88 C 283.03 314.32 287.34 317.35 291.80 319.10 C 302.90 323.18 314.84 323.86 326.31 326.36 C 311.57 330.08 295.68 331.03 281.00 326.54 C 271.17 323.58 263.16 316.03 252.78 314.67 C 243.52 313.48 234.17 315.07 225.11 316.96 C 234.06 307.99 245.30 301.57 257.13 297.22 C 269.81 292.36 283.74 290.39 297.19 292.71 C 315.33 295.78 332.09 303.96 349.99 307.99 C 359.52 309.96 369.36 310.60 379.02 309.28 C 377.94 308.23 376.70 307.36 375.39 306.63 C 353.21 293.01 331.51 277.37 316.10 256.05 C 312.36 250.67 308.52 245.13 306.75 238.73 Z" />
<path fill="#91a8a3" d=" M 183.01 259.22 C 212.65 254.35 243.90 256.55 271.73 268.32 C 282.69 272.95 293.20 278.97 302.01 287.02 C 285.20 279.48 267.40 273.73 248.97 272.02 C 225.93 272.77 202.76 278.14 182.55 289.47 C 166.50 298.61 150.48 307.83 134.85 317.68 C 146.63 318.01 158.60 317.52 169.97 314.15 C 182.52 310.82 194.40 305.55 206.38 300.65 C 195.42 311.04 182.02 318.73 168.10 324.46 C 156.28 329.04 143.52 330.41 130.95 330.77 C 117.98 331.12 105.13 329.18 92.28 327.77 C 118.55 309.15 146.02 292.10 175.07 278.15 C 151.26 284.27 128.92 294.91 107.23 306.29 C 98.49 310.80 89.96 315.97 80.41 318.60 C 70.92 321.29 60.69 322.57 51.01 320.11 C 43.92 318.20 37.05 313.16 35.12 305.78 C 33.42 300.14 35.20 293.57 39.79 289.81 C 44.72 285.54 51.78 285.38 57.86 286.63 C 64.94 287.85 71.72 291.53 79.06 290.73 C 86.26 289.03 92.86 285.18 98.29 280.19 C 96.94 284.10 93.97 287.13 90.96 289.83 C 86.93 293.21 82.43 296.64 77.01 297.11 C 69.30 298.09 61.75 295.66 54.08 295.54 C 51.22 295.68 47.48 296.16 46.21 299.16 C 45.37 301.28 46.80 303.43 48.38 304.74 C 51.26 307.21 55.29 307.53 58.93 307.48 C 70.76 306.94 81.77 301.85 91.68 295.69 C 119.84 278.72 150.29 264.41 183.01 259.22 Z" />
<path fill="#a12928" d=" M 31.43 339.67 C 39.84 337.98 49.49 339.02 56.15 344.86 C 61.30 349.43 63.61 356.38 64.17 363.07 C 65.16 372.01 63.41 381.55 57.82 388.77 C 52.53 395.73 43.65 399.44 34.99 399.03 C 27.04 399.02 18.59 395.62 14.47 388.49 C 9.73 380.29 9.09 370.16 10.95 361.02 C 13.03 350.81 21.02 341.73 31.43 339.67 Z" />
<path fill="#a12928" d=" M 77.19 343.00 C 87.17 339.20 98.52 337.15 108.92 340.41 C 115.59 342.49 119.32 349.42 119.44 356.11 C 119.67 370.07 119.27 384.04 119.87 398.00 C 116.41 398.00 112.95 398.00 109.50 398.00 C 109.44 394.52 109.42 391.03 109.77 387.56 C 104.85 397.33 91.84 401.97 81.97 397.15 C 72.51 392.54 71.50 377.89 79.40 371.33 C 87.44 364.40 98.63 363.68 108.75 363.19 C 108.96 358.01 108.81 351.35 103.51 348.63 C 95.52 345.52 86.83 348.66 79.21 351.50 C 78.53 348.67 77.86 345.83 77.19 343.00 Z" />
<path fill="#a12928" d=" M 156.53 341.47 C 159.97 339.18 164.25 338.54 168.31 338.91 C 168.17 342.41 167.98 345.90 167.94 349.40 C 164.09 349.03 159.87 349.11 156.75 351.72 C 152.02 355.67 150.77 362.17 150.16 367.99 C 149.42 377.97 149.90 387.99 149.78 397.99 C 146.26 398.01 142.74 398.00 139.22 397.99 C 139.23 378.67 139.24 359.34 139.22 340.01 C 142.66 339.99 146.11 340.00 149.55 340.00 C 149.47 344.08 149.24 348.17 148.39 352.18 C 150.45 348.18 152.62 343.97 156.53 341.47 Z" />
<path fill="#211545" d=" M 183.09 343.11 C 191.26 337.82 201.59 338.53 210.77 340.07 C 210.42 343.05 210.11 346.03 209.94 349.04 C 204.24 347.48 197.96 346.23 192.23 348.26 C 188.38 349.60 186.19 354.33 187.92 358.08 C 189.09 360.96 192.21 362.19 194.90 363.24 C 200.27 365.23 206.38 366.23 210.60 370.41 C 214.20 373.85 214.84 379.32 213.95 384.01 C 212.79 389.76 208.29 394.40 202.95 396.57 C 194.77 400.04 185.55 399.33 177.03 397.71 C 177.04 394.42 177.42 391.16 177.89 387.91 C 183.83 389.98 190.43 391.20 196.59 389.40 C 200.26 388.37 203.60 384.95 203.02 380.89 C 202.93 377.17 199.35 375.00 196.20 373.94 C 190.14 371.69 182.83 370.79 178.73 365.22 C 174.11 358.27 176.00 347.70 183.09 343.11 Z" />
<path fill="#211545" d=" M 245.57 339.71 C 253.74 338.04 263.05 338.90 269.76 344.26 C 275.33 348.73 277.84 355.90 278.48 362.81 C 279.68 372.78 277.34 383.75 270.11 391.07 C 264.97 396.49 257.41 399.17 250.02 399.03 C 242.48 399.08 234.38 396.42 229.86 390.06 C 224.19 382.00 223.52 371.42 225.08 361.97 C 226.88 351.43 234.90 341.90 245.57 339.71 Z" />
<path fill="#211545" d=" M 313.80 340.63 C 319.10 338.52 325.31 338.25 330.61 340.47 C 334.94 342.29 337.81 346.56 338.50 351.12 C 341.53 346.64 345.14 342.13 350.46 340.33 C 356.66 338.13 364.24 338.26 369.71 342.24 C 374.10 345.70 375.47 351.61 375.52 356.95 C 375.50 370.63 375.52 384.32 375.51 398.00 C 371.92 398.00 368.33 398.00 364.75 398.00 C 364.74 385.00 364.75 372.00 364.75 359.01 C 364.66 355.66 364.10 351.86 361.43 349.57 C 357.09 346.38 350.94 347.81 347.13 351.16 C 341.80 355.81 339.67 363.12 339.54 369.99 C 339.49 379.31 339.48 388.62 339.56 397.94 C 336.04 398.03 332.52 398.00 329.00 398.00 C 328.99 385.31 329.02 372.63 328.99 359.94 C 328.88 356.08 328.36 351.47 324.86 349.12 C 320.77 346.67 315.35 347.82 311.79 350.71 C 306.38 355.08 304.01 362.24 303.77 368.99 C 303.75 378.66 303.77 388.33 303.77 398.00 C 300.18 398.00 296.59 397.99 293.00 398.00 C 293.00 378.67 293.00 359.33 293.00 340.00 C 296.42 340.00 299.84 340.00 303.26 340.00 C 303.33 343.78 303.22 347.58 302.63 351.32 C 305.18 346.76 308.86 342.61 313.80 340.63 Z" />
<path fill="#211545" d=" M 396.72 347.74 C 401.27 341.93 408.67 338.79 415.98 338.96 C 422.99 338.74 430.57 341.28 434.69 347.24 C 439.24 353.48 439.47 361.61 438.74 369.00 C 426.15 369.00 413.56 369.00 400.98 369.00 C 400.64 376.21 402.34 385.04 409.56 388.43 C 417.94 391.96 427.48 389.95 435.71 386.93 C 436.24 389.77 436.76 392.60 437.27 395.45 C 427.30 399.03 416.13 400.43 405.84 397.42 C 398.00 395.11 392.48 387.88 390.99 380.02 C 388.85 369.16 389.49 356.67 396.72 347.74 Z" />
<path fill="#fefefe" d=" M 406.02 351.08 C 411.12 345.44 421.54 345.80 425.80 352.26 C 427.67 354.87 427.93 358.14 428.26 361.23 C 419.28 361.23 410.30 361.26 401.32 361.21 C 402.09 357.54 403.27 353.78 406.02 351.08 Z" />
<path fill="#fefefe" d=" M 32.55 348.70 C 38.16 346.94 45.06 348.21 48.87 352.93 C 52.39 357.45 53.23 363.41 53.24 368.98 C 53.15 375.11 51.71 381.75 47.10 386.12 C 41.03 391.96 29.81 391.01 25.08 383.94 C 21.22 378.11 20.78 370.67 21.53 363.90 C 22.28 357.42 26.08 350.82 32.55 348.70 Z" />
<path fill="#fefefe" d=" M 247.43 348.55 C 252.90 347.01 259.52 348.32 263.19 352.91 C 266.98 357.70 267.65 364.12 267.50 370.03 C 267.35 376.11 265.61 382.67 260.79 386.73 C 254.30 392.19 243.01 390.57 238.81 383.03 C 235.43 376.97 234.95 369.61 236.03 362.86 C 236.99 356.58 241.01 350.27 247.43 348.55 Z" />
<path fill="#fefefe" d=" M 88.26 375.26 C 94.24 371.24 101.86 371.01 108.83 371.01 C 109.04 377.48 106.44 384.24 101.05 388.06 C 97.37 390.63 92.02 391.61 88.16 388.86 C 83.70 385.78 83.53 378.21 88.26 375.26 Z" />
<path fill="#211545" d=" M 169.33 403.40 C 171.64 402.11 176.21 403.63 174.82 406.86 C 173.34 409.26 170.83 410.86 169.51 413.38 C 166.13 419.71 163.17 426.26 160.55 432.93 C 165.08 429.96 169.28 425.61 175.05 425.46 C 178.25 425.08 181.36 427.69 181.18 431.00 C 182.03 435.16 179.04 439.74 181.59 443.55 C 183.61 446.63 187.89 445.06 190.68 443.97 C 197.25 434.61 206.94 427.25 218.00 424.12 C 222.42 422.91 228.06 425.90 227.22 431.02 C 224.66 432.38 222.26 431.14 219.93 429.99 C 212.82 432.03 206.82 436.72 202.00 442.21 C 208.85 438.94 215.45 434.79 223.00 433.32 C 225.39 432.78 227.51 434.94 228.27 437.04 C 227.58 439.78 225.16 442.79 227.66 445.39 C 230.31 448.44 234.43 445.78 236.97 443.95 C 237.93 440.09 239.57 436.47 240.96 432.77 C 237.01 433.53 234.37 436.96 230.73 438.45 C 232.63 434.59 236.72 432.54 239.82 429.76 C 242.71 427.83 245.20 423.97 249.16 425.03 C 250.50 425.15 252.61 426.21 251.63 427.87 C 249.75 431.80 247.14 435.33 245.11 439.19 C 249.82 435.70 254.18 431.18 260.05 429.76 C 263.84 428.70 268.33 430.80 269.30 434.77 C 270.91 438.41 268.91 443.35 272.12 446.25 C 274.51 447.06 276.92 445.70 279.16 444.97 C 276.73 438.51 280.55 431.36 286.43 428.38 C 291.48 425.83 297.10 423.53 302.87 424.08 C 305.13 424.54 306.05 426.70 305.93 428.81 C 302.49 431.09 298.10 429.93 294.39 431.47 C 290.56 432.59 287.39 435.84 287.00 439.91 C 286.99 443.10 290.34 444.83 293.06 445.42 C 298.23 445.99 303.27 444.09 307.80 441.78 C 307.84 435.86 311.92 430.69 316.82 427.77 C 321.25 424.99 326.67 422.94 331.93 424.11 C 335.93 425.11 336.08 431.67 332.49 433.38 C 327.79 435.98 322.51 438.56 316.97 437.56 C 315.74 439.51 314.99 442.25 317.19 443.86 C 321.53 447.77 327.69 444.55 332.50 443.37 C 337.56 442.25 341.65 439.08 345.94 436.39 C 341.35 442.15 335.00 446.36 328.27 449.22 C 321.37 451.84 311.22 451.17 307.97 443.45 C 302.78 447.35 296.71 450.76 289.98 450.30 C 286.23 450.71 282.82 448.90 280.20 446.37 C 277.34 448.40 274.53 450.90 270.93 451.44 C 268.68 451.81 265.96 451.33 264.65 449.30 C 262.10 445.49 263.24 440.56 261.24 436.54 C 254.74 438.50 249.32 442.82 244.86 447.82 C 242.85 449.81 240.59 452.95 237.33 451.83 C 235.61 450.66 236.01 448.57 236.10 446.81 C 232.52 449.66 227.45 451.86 223.29 448.77 C 219.73 447.40 220.10 441.67 216.15 441.23 C 208.74 444.10 202.24 449.87 193.97 450.27 C 191.89 450.41 191.30 447.92 190.40 446.54 C 186.32 449.09 180.08 452.16 176.04 447.96 C 172.08 443.44 176.45 436.78 173.16 432.13 C 167.95 434.10 162.91 437.19 159.80 441.92 C 157.22 445.64 155.67 450.17 152.00 453.05 C 142.14 461.20 128.67 464.99 116.04 462.67 C 109.23 460.88 102.84 454.46 103.45 447.02 C 103.52 442.87 105.20 438.87 107.65 435.57 C 111.85 430.17 116.46 424.96 122.27 421.23 C 128.81 416.98 135.34 412.61 142.44 409.31 C 145.60 407.73 149.95 407.64 152.50 410.37 C 154.50 412.45 152.31 415.71 149.78 415.87 C 140.59 417.57 133.00 423.37 125.60 428.71 C 120.05 432.84 114.59 437.84 112.78 444.79 C 111.35 448.34 112.86 453.06 116.55 454.54 C 121.81 456.86 127.78 455.47 133.14 454.20 C 139.92 452.36 146.85 448.55 149.96 441.95 C 153.37 432.80 156.32 423.42 160.87 414.74 C 162.94 410.53 164.73 405.48 169.33 403.40 Z" />
<path fill="#fefefe" d=" M 320.60 433.16 C 321.79 430.76 325.43 428.40 327.94 430.07 C 325.72 431.56 323.36 433.07 320.60 433.16 Z" />
</svg>
