<?xml version="1.0" encoding="UTF-8" standalone="no"?>
<svg
   xmlns:dc="http://purl.org/dc/elements/1.1/"
   xmlns:cc="http://creativecommons.org/ns#"
   xmlns:rdf="http://www.w3.org/1999/02/22-rdf-syntax-ns#"
   xmlns:svg="http://www.w3.org/2000/svg"
   xmlns="http://www.w3.org/2000/svg"
   xmlns:sodipodi="http://sodipodi.sourceforge.net/DTD/sodipodi-0.dtd"
   xmlns:inkscape="http://www.inkscape.org/namespaces/inkscape"
   width="791pt"
   height="186pt"
   viewBox="0 0 791 186"
   version="1.1"
   id="svg3336"
   inkscape:version="0.91 r13725"
   sodipodi:docname="skiff_outline_V3.svg">
  <metadata
     id="metadata3598">
    <rdf:RDF>
      <cc:Work
         rdf:about="">
        <dc:format>image/svg+xml</dc:format>
        <dc:type
           rdf:resource="http://purl.org/dc/dcmitype/StillImage" />
        <dc:title></dc:title>
      </cc:Work>
    </rdf:RDF>
  </metadata>
  <defs
     id="defs3596" />
  <sodipodi:namedview
     pagecolor="#ffffff"
     bordercolor="#666666"
     borderopacity="1"
     objecttolerance="10"
     gridtolerance="10"
     guidetolerance="10"
     inkscape:pageopacity="0"
     inkscape:pageshadow="2"
     inkscape:window-width="1920"
     inkscape:window-height="1017"
     id="namedview3594"
     showgrid="false"
     inkscape:zoom="0.93255853"
     inkscape:cx="494.375"
     inkscape:cy="13.887078"
     inkscape:window-x="-8"
     inkscape:window-y="-8"
     inkscape:window-maximized="1"
     inkscape:current-layer="svg3336" />
  <path
     fill="#b3b2bc"
     d=" M 388.95 15.98 C 390.21 16.25 391.47 16.52 392.73 16.81 C 392.16 17.39 391.02 18.55 390.45 19.14 C 390.45 22.16 390.93 25.15 392.08 27.96 C 391.30 27.93 389.74 27.88 388.96 27.85 C 388.83 23.89 388.83 19.93 388.95 15.98 Z"
     id="path3340" />
  <path
     fill="#b3b2bc"
     d=" M 429.45 16.99 C 430.74 16.58 432.10 15.65 433.46 16.43 C 433.85 17.91 434.06 19.43 434.33 20.94 C 520.23 21.02 606.13 20.95 692.03 20.97 C 706.77 20.79 721.52 21.34 736.25 20.68 C 735.90 26.07 736.01 31.46 736.00 36.85 C 738.30 36.88 740.61 36.91 742.93 36.94 C 743.35 37.63 743.79 38.33 744.23 39.03 C 743.69 40.63 743.15 42.26 743.17 43.98 C 743.04 74.45 743.36 104.93 743.01 135.40 C 743.78 135.22 745.31 134.86 746.08 134.69 C 745.68 137.23 747.09 140.80 744.46 142.46 C 744.17 139.77 743.61 137.11 742.08 134.84 C 741.87 113.58 742.07 92.31 742.00 71.04 C 741.88 60.03 742.32 49.00 741.62 37.99 C 739.50 38.03 737.39 38.08 735.28 38.15 C 732.31 46.78 727.85 54.76 724.27 63.14 C 718.68 75.59 711.36 87.17 703.53 98.32 C 699.27 104.35 694.42 109.92 689.19 115.12 C 673.09 133.47 650.46 145.88 626.38 149.73 C 629.91 150.17 633.47 150.20 637.02 150.14 C 671.93 150.01 706.84 150.32 741.74 149.97 C 741.80 148.34 741.88 146.71 741.97 145.08 C 740.61 145.03 739.26 144.99 737.92 144.94 C 737.92 141.09 737.94 137.23 737.99 133.38 C 738.66 133.48 740.02 133.69 740.70 133.80 C 740.70 134.02 740.69 134.46 740.69 134.68 C 738.07 136.51 739.44 140.05 739.18 142.75 C 739.93 143.09 740.69 143.43 741.46 143.78 C 741.82 143.15 742.56 141.88 742.92 141.24 C 743.34 144.54 743.59 147.86 743.43 151.18 C 702.63 150.65 661.82 151.05 621.03 150.93 C 449.01 150.96 276.95 150.96 104.94 150.93 C 83.22 151.06 61.49 150.57 39.78 151.24 C 39.83 148.45 39.98 145.66 40.50 142.92 C 40.39 142.44 40.18 141.47 40.07 140.98 C 39.94 111.49 40.02 81.95 39.99 52.43 C 41.66 52.51 43.33 52.58 45.00 52.65 C 44.93 42.00 45.11 31.36 44.87 20.71 C 48.27 20.87 51.67 21.01 55.07 20.99 C 152.82 20.88 250.56 21.12 348.31 20.87 L 348.45 22.22 C 250.63 22.01 152.81 22.23 54.99 22.11 C 52.22 22.11 49.48 22.44 46.74 22.81 C 47.23 32.76 46.16 42.81 47.22 52.69 C 51.23 54.49 55.79 54.40 59.83 56.06 C 61.23 58.52 62.10 61.23 63.22 63.82 C 98.98 71.50 135.11 77.57 171.58 80.51 C 206.91 84.17 242.45 85.26 277.93 86.34 C 285.28 86.27 292.63 86.24 299.95 86.94 C 330.63 87.04 361.32 86.96 392.01 86.98 C 407.37 85.80 422.81 86.63 438.18 85.56 C 501.22 83.54 564.20 78.04 626.43 67.73 C 639.39 66.15 652.03 62.70 664.97 60.96 C 670.80 60.44 676.46 58.89 682.08 57.32 C 693.51 55.48 704.70 52.44 715.93 49.65 C 717.24 46.67 718.26 43.55 719.85 40.70 C 724.48 38.61 729.76 38.58 734.42 36.50 C 734.21 32.17 734.25 27.84 734.42 23.51 C 732.38 22.76 730.28 22.07 728.09 22.13 C 630.11 22.17 532.12 22.11 434.14 22.16 C 433.98 24.05 433.83 25.95 433.69 27.85 C 432.44 27.83 431.19 27.81 429.95 27.79 C 432.28 24.85 433.76 18.78 429.45 16.99 Z"
     id="path3342" />
  <path
     fill="#b3b2bc"
     d=" M 350.43 17.22 C 352.16 16.89 353.09 18.71 354.33 19.54 C 355.34 18.72 356.34 17.88 357.35 17.05 C 358.33 17.66 359.31 18.28 360.30 18.89 C 359.40 18.97 357.61 19.11 356.72 19.18 C 357.54 19.70 358.36 20.21 359.19 20.73 C 359.80 21.79 360.41 22.85 361.04 23.91 C 361.11 23.21 361.25 21.82 361.33 21.13 C 361.36 23.61 363.45 23.87 365.48 23.61 C 364.65 22.58 363.81 21.56 362.96 20.54 C 363.11 20.29 363.42 19.78 363.57 19.52 C 362.81 18.73 362.06 17.94 361.33 17.14 C 362.86 17.15 364.39 17.22 365.93 17.33 C 365.81 18.19 365.68 19.04 365.52 19.88 C 365.79 21.70 366.03 23.53 366.26 25.35 C 364.25 25.18 362.05 25.41 360.36 24.07 C 358.96 24.68 357.52 25.39 355.95 25.15 C 354.52 23.62 355.10 21.33 354.79 19.44 C 353.50 20.92 352.19 22.36 350.86 23.79 C 351.83 23.96 353.76 24.30 354.73 24.47 C 352.50 25.10 350.18 25.20 347.87 25.18 C 349.57 23.20 351.25 21.16 352.34 18.76 C 351.08 19.48 349.84 20.24 348.59 20.98 C 349.02 19.65 349.01 17.95 350.43 17.22 Z"
     id="path3344" />
  <path
     fill="#b3b2bc"
     d=" M 371.18 16.86 C 372.66 17.29 374.16 17.74 375.61 18.30 C 374.32 18.70 373.04 19.07 371.75 19.43 C 373.26 19.94 374.64 20.76 375.77 21.89 C 375.80 19.49 377.62 15.98 380.48 17.56 C 381.97 19.21 381.93 21.70 381.73 23.79 C 380.78 26.68 377.21 24.74 375.57 23.48 C 373.42 26.06 369.81 24.61 366.92 24.93 L 366.99 23.75 C 369.30 23.68 371.61 23.72 373.92 23.54 C 374.59 21.10 371.16 21.48 369.72 20.81 C 370.21 19.50 370.69 18.18 371.18 16.86 Z"
     id="path3346" />
  <path
     fill="#b3b2bc"
     d=" M 392.60 22.85 C 392.97 20.56 393.40 17.81 395.95 16.95 C 396.90 17.67 397.82 18.44 398.70 19.25 C 397.70 19.19 395.71 19.07 394.71 19.01 C 396.36 20.09 398.61 20.86 399.22 22.95 C 398.61 25.19 396.03 25.05 394.22 25.41 C 393.81 24.77 393.00 23.49 392.60 22.85 Z"
     id="path3348" />
  <path
     fill="#b3b2bc"
     d=" M 402.88 18.20 C 403.84 17.74 404.81 17.27 405.78 16.81 C 406.26 17.36 407.21 18.46 407.69 19.01 C 406.41 19.11 405.14 19.21 403.87 19.31 C 405.10 19.80 406.35 20.30 407.60 20.79 C 408.45 19.28 409.25 17.52 411.06 16.96 C 414.67 18.31 414.33 22.43 413.09 25.36 C 411.39 25.16 409.66 24.98 408.12 24.18 C 409.13 24.04 411.16 23.78 412.18 23.64 C 410.95 22.99 409.73 22.33 408.51 21.66 C 408.04 23.01 407.57 24.36 407.10 25.71 C 405.80 25.40 404.52 25.05 403.26 24.65 C 401.73 22.82 402.82 20.31 402.88 18.20 Z"
     id="path3350" />
  <path
     fill="#fefefe"
     d=" M 379.95 24.35 C 376.89 23.80 377.28 19.71 379.67 18.52 C 379.82 20.46 379.90 22.41 379.95 24.35 Z"
     id="path3352" />
  <path
     fill="#fefefe"
     d=" M 410.21 19.29 C 411.82 18.78 412.36 19.34 411.83 20.98 C 410.21 21.50 409.67 20.93 410.21 19.29 Z"
     id="path3354" />
  <path
     fill="#b3b2bc"
     d=" M 422.59 25.48 C 420.14 24.34 421.14 21.83 421.50 19.75 C 424.08 19.84 426.66 19.89 429.24 19.91 C 429.62 21.85 430.63 24.11 428.56 25.43 C 428.25 23.82 427.74 22.29 427.02 20.84 C 426.31 22.42 425.77 24.06 425.40 25.76 C 424.98 23.93 424.45 22.10 423.48 20.47 C 423.17 22.14 422.87 23.81 422.59 25.48 Z"
     id="path3356" />
  <path
     fill="#fefefe"
     d=" M 357.17 21.42 C 358.65 20.96 359.69 23.54 357.96 23.85 C 356.42 24.33 355.43 21.78 357.17 21.42 Z"
     id="path3358" />
  <path
     fill="#fefefe"
     d=" M 395.43 21.12 C 397.33 20.39 398.18 23.67 396.18 24.01 C 394.26 24.61 393.54 21.59 395.43 21.12 Z"
     id="path3360" />
  <path
     fill="#fefefe"
     d=" M 404.23 21.39 C 405.54 19.96 407.73 22.33 406.41 23.63 C 405.07 25.16 402.90 22.73 404.23 21.39 Z"
     id="path3362" />
  <path
     fill="#b3b2bc"
     d=" M 400.24 23.56 C 403.57 23.88 398.53 26.45 400.24 23.56 Z"
     id="path3364" />
  <path
     d=" M 720.61 41.70 C 724.99 40.57 729.37 39.42 733.79 38.47 C 730.80 46.58 726.60 54.16 723.27 62.13 C 717.08 76.24 708.67 89.23 699.60 101.64 C 688.95 114.98 676.68 127.41 661.65 135.77 C 642.92 147.12 620.53 150.22 598.99 150.12 C 449.32 150.07 299.65 150.15 149.99 150.09 C 123.08 149.09 96.31 136.92 79.10 115.98 C 73.64 108.95 68.41 101.71 63.92 94.02 C 61.52 89.16 58.93 84.38 56.68 79.45 C 53.45 70.99 49.97 62.62 46.83 54.12 C 51.01 55.16 55.18 56.27 59.28 57.60 C 60.02 59.41 60.78 61.22 61.53 63.04 C 59.58 62.63 57.62 62.22 55.67 61.82 C 60.79 76.74 67.33 91.38 76.85 104.06 C 83.02 112.74 89.70 121.45 98.79 127.25 C 113.90 138.16 132.31 144.57 150.98 144.86 C 301.98 144.89 452.98 144.84 603.99 144.88 C 616.82 144.19 629.92 143.58 642.11 139.11 C 647.64 136.97 653.51 135.20 658.09 131.25 C 653.11 132.49 648.73 135.26 643.91 136.92 C 631.29 142.08 617.47 143.02 604.00 143.37 C 457.66 143.40 311.33 143.45 164.99 143.38 C 156.19 143.41 147.36 143.53 138.61 142.50 C 128.06 140.73 117.74 137.17 108.50 131.75 C 119.34 133.10 130.14 134.84 141.04 135.60 C 141.04 135.09 141.04 134.08 141.04 133.57 C 133.03 134.42 125.06 132.41 117.14 131.47 C 111.48 130.29 105.03 130.66 100.36 126.72 C 95.92 123.19 90.28 120.69 87.69 115.32 C 112.16 121.01 137.00 124.86 161.92 127.92 C 173.79 128.70 185.59 131.59 197.50 131.09 C 197.62 130.91 197.87 130.55 197.99 130.37 C 195.68 129.91 193.33 129.70 190.98 129.60 C 181.78 129.19 172.70 127.53 163.54 126.73 C 149.57 125.23 135.68 123.09 121.86 120.63 C 111.80 119.28 101.92 116.98 92.01 114.85 C 89.49 114.22 86.82 113.80 84.61 112.35 C 81.50 108.55 78.64 104.52 75.97 100.40 C 87.31 102.65 98.33 106.35 109.73 108.36 C 118.58 109.86 127.33 111.83 136.10 113.69 C 160.39 117.36 184.65 121.50 209.16 123.34 C 233.37 125.85 257.65 127.57 281.95 128.50 C 291.91 129.80 301.99 128.66 311.95 129.90 C 344.66 130.54 377.42 130.67 410.14 129.85 C 422.08 128.77 434.12 129.70 446.06 128.33 C 456.39 128.47 466.64 127.02 476.96 127.08 C 486.29 126.32 495.62 125.40 504.97 124.92 C 509.30 124.56 513.65 123.77 518.01 124.46 C 518.00 123.93 517.98 122.88 517.97 122.35 C 455.81 128.09 393.35 129.55 330.94 128.83 C 304.88 128.53 278.85 127.23 252.83 125.70 C 247.57 125.01 242.27 124.89 236.97 124.65 C 217.38 122.86 197.80 120.95 178.26 118.61 C 159.89 115.80 141.40 113.62 123.24 109.59 C 110.45 106.92 97.52 104.75 84.98 101.00 C 81.61 100.06 78.02 99.72 74.84 98.17 C 71.83 95.47 70.22 91.61 68.51 88.04 C 101.59 98.19 135.73 104.58 169.95 109.48 C 225.06 116.14 280.53 119.73 336.02 120.50 C 353.04 120.47 370.05 120.50 387.06 120.48 C 440.13 119.28 493.22 116.16 545.90 109.36 C 561.25 106.92 576.77 105.46 591.98 102.17 C 597.20 101.13 602.56 100.95 607.74 99.69 C 621.15 96.77 634.81 95.00 648.05 91.35 C 653.86 90.02 659.80 89.23 665.52 87.50 C 674.22 84.92 683.26 83.67 691.90 80.87 C 697.58 79.13 703.30 77.52 709.05 76.00 C 706.66 79.59 704.58 83.38 701.88 86.74 C 700.89 88.03 699.21 88.26 697.76 88.68 C 686.49 91.25 675.45 94.70 664.16 97.15 C 644.47 101.45 624.84 106.10 605.01 109.75 C 595.86 110.63 587.03 113.45 577.88 114.29 C 563.77 116.63 549.63 118.87 535.40 120.40 C 529.66 121.25 523.89 121.99 518.08 122.09 C 522.40 124.17 527.34 122.72 531.88 122.24 C 547.36 120.57 562.74 118.11 578.12 115.71 C 583.48 115.08 588.78 114.06 594.04 112.89 C 599.65 111.62 605.42 111.27 611.02 109.98 C 622.01 107.49 633.20 105.93 644.08 102.92 C 662.96 99.14 681.67 94.50 700.18 89.15 C 696.44 95.17 692.19 101.00 687.15 105.99 C 679.93 109.62 671.56 109.50 663.90 111.72 C 614.35 121.00 564.37 128.54 514.04 132.03 C 500.72 133.07 487.37 133.83 474.03 134.61 C 453.41 134.97 432.83 136.41 412.20 135.94 C 413.32 136.65 414.48 137.60 415.94 137.28 C 428.93 137.10 441.96 137.45 454.92 136.42 C 516.36 134.97 577.66 128.43 638.16 117.69 C 644.48 116.94 650.63 115.18 656.98 114.56 C 662.13 114.12 666.91 111.91 672.05 111.31 C 676.58 110.79 680.98 109.60 685.42 108.58 C 679.01 115.15 672.00 121.17 664.48 126.44 C 662.42 128.07 659.60 127.64 657.21 128.04 C 658.82 129.14 660.96 130.29 662.82 128.98 C 670.94 124.34 677.61 117.59 684.39 111.23 C 701.28 92.78 714.89 71.19 723.68 47.75 C 721.73 48.21 719.79 48.69 717.84 49.16 C 718.71 46.66 719.64 44.17 720.61 41.70 Z"
     id="path3366"
     fill="#fefefe" />
  <path
     fill="#fefefe"
     d=" M 692.90 56.70 C 702.51 54.32 712.18 52.23 721.73 49.61 C 719.98 53.62 718.10 57.58 716.33 61.58 C 692.30 67.88 668.26 74.31 643.78 78.63 C 639.17 79.61 634.68 81.16 630.00 81.78 C 619.25 83.00 608.72 85.58 598.07 87.42 C 582.07 89.67 566.17 92.51 550.12 94.44 C 536.31 96.88 522.29 97.76 508.40 99.52 C 474.00 102.61 439.54 105.17 405.00 105.15 C 400.98 105.28 396.99 105.92 392.96 105.90 C 375.32 105.85 357.69 105.89 340.05 105.88 C 333.98 105.83 327.89 106.14 321.85 105.42 C 321.90 105.94 322.01 106.98 322.07 107.49 C 329.68 106.57 337.37 107.17 345.01 107.00 C 388.90 107.21 432.82 106.95 476.59 103.43 C 509.23 101.30 541.75 97.47 574.06 92.41 C 580.79 91.87 587.32 89.95 594.07 89.50 C 605.54 87.76 616.82 84.82 628.35 83.44 C 635.41 82.65 642.05 79.94 649.06 78.93 C 663.66 76.63 677.86 72.49 692.28 69.35 C 700.08 67.86 707.52 64.98 715.26 63.20 C 713.02 67.33 712.30 73.58 707.09 75.02 C 695.08 78.67 683.01 82.10 670.73 84.70 C 661.22 87.69 651.29 88.89 641.72 91.61 C 630.87 94.09 619.86 95.77 608.99 98.14 C 563.31 106.04 517.29 112.51 470.97 115.21 C 457.67 116.53 444.32 116.77 431.00 117.78 C 424.02 118.02 417.02 117.76 410.08 118.58 C 387.40 119.29 364.70 118.97 342.01 119.04 C 330.33 119.14 318.65 118.77 306.98 118.62 C 296.69 117.43 286.29 118.45 276.03 117.04 C 265.32 116.74 254.63 116.10 243.97 115.06 C 226.56 114.33 209.24 112.25 191.88 110.72 C 150.67 106.21 109.64 98.95 69.88 87.05 C 65.48 86.10 65.23 80.77 63.50 77.42 C 71.90 80.05 80.60 81.51 88.96 84.24 C 101.15 86.51 113.24 89.29 125.45 91.44 C 131.01 92.04 136.47 93.20 141.97 94.19 C 189.34 101.24 237.18 104.57 285.03 106.01 C 296.04 106.26 307.05 106.92 318.08 106.53 C 319.56 106.75 320.64 105.64 321.78 104.92 C 305.52 104.97 289.23 105.41 273.02 104.17 C 247.90 103.50 222.84 101.76 197.82 99.51 C 165.97 96.84 134.32 92.19 103.05 85.66 C 97.44 84.17 91.60 83.75 86.07 81.93 C 78.57 79.53 70.64 78.59 63.27 75.78 C 60.17 72.58 59.24 67.85 57.88 63.70 C 111.24 76.79 166.13 82.49 220.88 85.59 C 228.27 86.35 235.74 85.57 243.13 86.56 C 252.11 87.14 261.13 87.01 270.13 87.28 C 279.74 88.26 289.41 87.52 299.05 88.10 C 338.37 87.95 377.69 88.39 417.00 87.73 C 427.92 86.65 438.93 87.40 449.87 86.56 C 457.54 85.59 465.32 86.49 472.97 85.28 C 523.60 82.87 574.13 77.67 624.16 69.48 C 635.32 68.13 646.31 65.71 657.33 63.50 C 664.66 62.00 672.26 61.84 679.42 59.48 C 683.79 58.02 688.44 57.82 692.90 56.70 Z"
     id="path3368" />
  <path
     fill="#fefefe"
     d=" M 42.14 54.00 C 43.27 54.01 44.41 54.01 45.54 54.02 C 47.61 60.78 50.50 67.24 53.12 73.80 C 60.83 94.22 73.07 113.02 89.04 127.94 C 101.69 139.01 117.49 145.88 133.69 149.87 C 111.47 150.45 89.22 149.96 66.99 150.09 C 58.73 150.03 50.47 150.23 42.21 149.94 C 42.06 148.01 41.91 146.09 41.77 144.17 C 42.59 144.15 44.24 144.12 45.06 144.10 C 46.21 141.84 46.08 139.40 45.20 137.08 C 44.11 136.73 43.01 136.38 41.92 136.02 C 41.84 111.33 41.95 86.64 41.87 61.94 C 41.87 59.29 42.01 56.65 42.14 54.00 Z"
     id="path3370" />
  <path
     fill="#b3b2bc"
     d=" M 597.82 133.73 C 617.52 131.96 637.29 130.74 656.92 128.23 C 656.97 128.80 657.06 129.93 657.10 130.50 C 651.77 129.29 646.47 131.26 641.14 131.49 C 611.77 133.92 582.42 136.62 552.98 138.06 C 545.30 138.13 537.68 139.37 529.99 139.12 C 519.66 139.39 509.34 140.47 499.00 140.17 C 494.64 139.96 490.35 140.91 486.01 140.98 C 474.69 140.87 463.36 141.34 452.04 141.16 C 447.67 141.01 443.34 141.64 439.00 141.87 C 392.34 142.05 345.67 142.24 299.01 141.88 C 295.31 141.79 291.59 141.76 287.95 142.47 C 287.95 141.94 287.95 140.89 287.95 140.36 C 322.63 141.20 357.33 140.90 392.02 140.94 C 399.36 140.89 406.71 141.10 414.04 140.68 C 425.00 140.44 436.00 141.01 446.94 140.03 C 455.01 139.61 463.09 140.25 471.15 139.72 C 478.74 139.13 486.37 139.87 493.95 139.04 C 528.62 138.48 563.24 136.24 597.82 133.73 Z"
     id="path3372" />
  <path
     fill="#b3b2bc"
     d=" M 658.28 130.19 C 661.29 128.68 658.37 133.52 658.28 130.19 Z"
     id="path3374" />
  <path
     fill="#b3b2bc"
     d=" M 199.26 131.19 C 201.69 130.30 204.35 130.77 206.87 130.91 C 221.55 132.47 236.30 133.12 251.03 134.00 C 260.58 135.04 270.21 134.49 279.76 135.34 C 294.16 135.94 308.59 135.77 322.98 136.57 C 352.70 136.42 382.42 136.75 412.14 136.40 C 412.09 136.92 411.99 137.95 411.93 138.47 C 406.65 137.52 401.27 138.00 395.94 137.93 C 370.60 137.90 345.27 138.02 319.93 137.87 C 306.98 136.71 293.96 137.46 280.99 136.82 C 271.37 135.65 261.64 136.46 252.00 135.39 C 234.37 134.87 216.83 132.79 199.21 132.08 C 199.22 131.85 199.25 131.41 199.26 131.19 Z"
     id="path3376" />
  <path
     fill="#b3b2bc"
     d=" M 778.86 134.63 C 779.38 134.00 779.90 133.35 780.49 132.76 C 781.18 133.22 781.87 133.69 782.56 134.19 C 782.47 137.54 782.94 140.95 782.28 144.26 C 781.81 145.98 780.08 144.93 779.04 144.55 C 781.58 142.23 780.95 138.74 781.00 135.66 C 780.47 135.40 779.40 134.89 778.86 134.63 Z"
     id="path3378" />
  <path
     fill="#b3b2bc"
     d=" M 710.22 135.54 C 711.58 134.36 713.34 134.37 715.04 134.36 C 713.89 136.48 714.91 138.52 715.89 140.44 C 714.46 141.49 712.83 142.15 711.11 142.50 C 710.51 141.84 709.31 140.51 708.71 139.84 C 708.54 140.41 708.19 141.55 708.01 142.12 C 706.49 141.21 704.95 140.30 703.44 139.40 C 704.44 138.32 705.73 138.02 707.32 138.50 C 706.64 138.21 705.26 137.63 704.58 137.34 C 705.64 136.22 706.80 135.20 708.06 134.30 C 708.10 135.80 708.14 137.30 708.17 138.80 C 709.93 139.65 711.64 141.56 713.76 140.67 C 714.45 139.17 712.81 138.42 712.03 137.48 C 712.29 137.21 712.82 136.68 713.08 136.41 C 712.37 136.19 710.94 135.76 710.22 135.54 Z"
     id="path3380" />
  <path
     fill="#b3b2bc"
     d=" M 719.24 137.29 C 719.47 134.87 722.02 133.36 723.98 135.10 C 724.92 137.29 722.90 139.04 721.98 140.82 C 722.89 141.00 724.71 141.36 725.62 141.54 C 723.36 142.08 721.03 142.22 718.73 142.22 C 720.28 140.13 721.86 138.06 723.34 135.92 C 721.97 136.38 720.60 136.84 719.24 137.29 Z"
     id="path3382" />
  <path
     fill="#b3b2bc"
     d=" M 758.39 135.31 C 759.60 133.06 761.82 135.37 763.32 135.98 C 762.88 137.93 763.78 140.59 761.92 141.93 C 760.59 142.10 759.26 142.21 757.94 142.27 C 758.08 139.97 757.44 137.46 758.39 135.31 Z"
     id="path3384" />
  <path
     fill="#b3b2bc"
     d=" M 35.79 135.66 C 36.85 135.62 37.91 135.55 38.97 135.57 C 38.26 138.30 37.87 141.10 37.92 143.93 C 38.31 144.45 39.08 145.47 39.47 145.99 C 38.59 146.01 36.83 146.05 35.95 146.06 C 35.97 142.60 35.93 139.13 35.79 135.66 Z"
     id="path3386" />
  <path
     fill="#b3b2bc"
     d=" M 77.31 135.52 C 78.60 135.52 79.90 135.54 81.19 135.56 C 81.10 139.04 81.08 142.53 81.16 146.01 C 80.29 146.09 78.56 146.25 77.69 146.33 C 79.07 143.81 79.34 140.96 79.23 138.14 C 78.75 137.48 77.79 136.17 77.31 135.52 Z"
     id="path3388" />
  <path
     fill="#b3b2bc"
     d=" M 142.24 135.18 C 146.71 133.96 151.37 135.22 155.90 135.47 C 181.56 137.04 207.25 138.14 232.94 138.89 C 251.19 138.92 269.42 140.36 287.67 139.85 C 287.01 140.40 286.34 140.93 285.66 141.45 C 274.12 140.98 262.55 141.10 251.01 140.96 C 240.37 139.76 229.65 140.48 218.98 139.84 C 207.67 138.69 196.27 139.60 184.96 138.33 C 170.66 138.01 156.44 136.46 142.15 136.03 C 142.17 135.82 142.22 135.39 142.24 135.18 Z"
     id="path3390" />
  <path
     fill="#b3b2bc"
     d=" M 724.74 136.91 C 725.47 136.08 726.20 135.25 726.94 134.42 C 727.75 134.52 729.37 134.73 730.18 134.83 C 730.35 136.70 730.69 138.59 730.42 140.47 C 730.23 142.67 727.62 141.84 726.14 142.26 C 725.69 140.47 725.22 138.69 724.74 136.91 Z"
     id="path3392" />
  <path
     fill="#b3b2bc"
     d=" M 752.24 135.72 C 752.95 135.34 754.36 134.59 755.07 134.21 C 755.09 136.82 755.08 139.43 755.08 142.05 L 754.03 142.00 C 753.95 140.72 753.87 139.44 753.80 138.16 C 753.24 137.35 752.71 136.57 752.24 135.72 Z"
     id="path3394" />
  <path
     fill="#b3b2bc"
     d=" M 2.86 136.24 C 4.38 136.26 5.90 136.38 7.42 136.49 C 7.23 137.03 6.84 138.11 6.65 138.65 C 6.96 140.30 7.67 142.06 6.76 143.66 C 4.80 144.65 2.16 144.27 1.20 142.09 C 2.92 142.18 4.63 142.30 6.34 142.38 C 5.12 140.38 3.39 138.58 2.86 136.24 Z"
     id="path3396" />
  <path
     fill="#b3b2bc"
     d=" M 7.44 137.62 C 9.34 136.24 11.72 136.30 13.96 136.22 C 12.93 139.24 11.64 142.23 9.53 144.68 C 9.44 142.34 10.43 140.19 11.40 138.12 C 10.41 138.00 8.43 137.75 7.44 137.62 Z"
     id="path3398" />
  <path
     fill="#b3b2bc"
     d=" M 24.15 137.09 C 25.08 136.65 26.02 136.20 26.96 135.76 C 28.65 137.78 29.55 140.20 29.21 142.86 C 28.08 143.52 26.96 144.18 25.83 144.85 C 24.88 143.58 23.58 142.48 23.08 140.93 C 23.33 139.62 23.76 138.36 24.15 137.09 Z"
     id="path3400" />
  <path
     fill="#b3b2bc"
     d=" M 49.60 136.83 C 52.06 135.72 54.02 136.95 55.56 138.87 C 55.06 140.69 54.55 142.52 54.05 144.34 C 52.25 144.21 50.41 144.02 49.24 142.44 C 50.20 142.56 52.11 142.80 53.06 142.91 L 52.79 142.50 C 49.84 142.09 49.65 139.22 49.60 136.83 Z"
     id="path3402" />
  <path
     fill="#fefefe"
     d=" M 727.26 136.01 C 728.85 135.34 729.73 137.99 728.03 138.38 C 726.43 139.03 725.57 136.41 727.26 136.01 Z"
     id="path3404" />
  <path
     fill="#fefefe"
     d=" M 759.11 135.81 C 760.07 136.16 761.04 136.51 762.01 136.87 C 761.96 138.21 761.91 139.56 761.87 140.91 C 761.18 140.93 759.79 140.98 759.10 141.00 C 759.10 139.27 759.10 137.54 759.11 135.81 Z"
     id="path3406" />
  <path
     fill="#b3b2bc"
     d=" M 17.83 137.79 C 18.96 137.34 20.10 136.90 21.23 136.46 C 21.23 139.06 21.22 141.67 21.24 144.29 L 19.85 144.17 C 19.91 142.74 19.96 141.32 20.01 139.89 C 19.29 139.19 18.56 138.49 17.83 137.79 Z"
     id="path3408" />
  <path
     fill="#b3b2bc"
     d=" M 55.76 141.57 C 56.76 139.49 57.93 137.47 59.80 136.06 C 60.32 138.76 60.96 141.55 60.24 144.28 C 58.76 143.35 57.28 142.43 55.76 141.57 Z"
     id="path3410" />
  <path
     fill="#b3b2bc"
     d=" M 770.82 136.87 C 773.41 136.89 776.07 136.55 778.61 137.22 C 778.87 139.08 778.49 140.93 777.65 142.60 C 777.04 140.88 776.64 139.06 775.52 137.57 C 775.29 139.07 775.10 140.57 774.93 142.07 L 774.18 141.97 C 773.75 140.57 773.32 139.18 772.89 137.79 C 772.51 139.19 772.16 140.60 771.82 142.02 L 770.65 141.99 C 770.70 140.28 770.75 138.57 770.82 136.87 Z"
     id="path3412" />
  <path
     fill="#fefefe"
     d=" M 25.16 138.21 C 26.95 137.47 27.36 139.72 28.26 140.74 C 27.76 141.36 26.75 142.59 26.25 143.21 C 25.45 141.66 24.82 139.98 25.16 138.21 Z"
     id="path3414" />
  <path
     fill="#fefefe"
     d=" M 42.18 137.40 C 43.29 138.53 44.33 139.73 45.35 140.94 C 44.33 141.64 43.30 142.35 42.27 143.05 C 41.91 141.18 41.91 139.28 42.18 137.40 Z"
     id="path3416" />
  <path
     fill="#fefefe"
     d=" M 51.23 138.27 C 52.85 137.74 53.39 138.30 52.84 139.93 C 51.21 140.45 50.67 139.90 51.23 138.27 Z"
     id="path3418" />
  <path
     fill="#b3b2bc"
     d=" M 68.38 138.58 C 70.87 138.59 73.37 138.54 75.86 138.33 C 76.76 140.34 77.21 142.52 77.09 144.74 C 75.80 143.25 74.95 141.48 74.25 139.66 C 73.66 141.43 73.03 143.17 72.35 144.90 C 72.08 143.08 71.81 141.26 71.51 139.44 C 70.30 141.10 69.84 143.13 69.23 145.06 C 68.44 142.98 68.29 140.77 68.38 138.58 Z"
     id="path3420" />
  <path
     fill="#fefefe"
     d=" M 58.31 140.32 C 58.83 140.81 58.83 140.81 58.31 140.32 Z"
     id="path3422" />
  <path
     fill="#fefefe"
     d=" M 727.20 140.06 C 730.16 138.48 727.39 143.36 727.20 140.06 Z"
     id="path3424" />
  <path
     fill="#b3b2bc"
     d=" M 716.37 141.12 C 719.34 139.51 716.60 144.42 716.37 141.12 Z"
     id="path3426" />
  <path
     fill="#b3b2bc"
     d=" M 749.25 141.26 C 749.78 141.79 749.78 141.79 749.25 141.26 Z"
     id="path3428" />
  <path
     fill="#b3b2bc"
     d=" M 15.29 143.21 C 15.82 143.73 15.82 143.73 15.29 143.21 Z"
     id="path3430" />
  <path
     fill="#b3b2bc"
     d=" M 47.29 143.26 C 47.82 143.78 47.82 143.78 47.29 143.26 Z"
     id="path3432" />
  <path
     fill="#b3b2bc"
     d=" M 456.27 170.61 C 457.71 170.31 457.85 172.78 456.85 173.37 C 455.40 173.66 455.26 171.20 456.27 170.61 Z"
     id="path3434" />
  <path
     fill="#b3b2bc"
     d=" M 298.06 172.15 C 298.57 171.90 299.60 171.39 300.11 171.13 C 299.57 173.79 299.24 176.48 299.04 179.18 L 297.98 179.04 C 297.76 177.40 297.54 175.77 297.30 174.14 C 297.49 173.65 297.87 172.65 298.06 172.15 Z"
     id="path3436" />
  <path
     fill="#b3b2bc"
     d=" M 175.81 171.67 C 178.41 172.14 182.33 170.68 183.62 173.79 C 184.25 173.89 185.52 174.07 186.15 174.16 C 186.28 176.08 186.38 178.00 186.43 179.92 C 185.40 178.11 184.47 176.26 183.50 174.43 C 183.25 176.28 182.99 178.12 182.71 179.97 C 181.33 177.89 181.81 175.34 181.73 172.99 C 181.09 173.02 179.79 173.07 179.14 173.10 C 179.08 175.47 178.99 177.84 178.69 180.20 C 177.58 177.38 177.81 174.12 175.81 171.67 Z"
     id="path3438" />
  <path
     fill="#b3b2bc"
     d=" M 234.77 179.23 C 234.80 176.70 235.00 174.19 235.43 171.70 C 236.97 172.83 238.61 173.85 239.97 175.21 C 240.13 176.53 240.22 177.86 240.26 179.20 C 238.43 179.22 236.60 179.22 234.77 179.23 Z"
     id="path3440" />
  <path
     fill="#b3b2bc"
     d=" M 276.18 171.06 C 277.98 173.70 277.97 177.43 276.20 180.09 C 275.85 177.09 275.83 174.06 276.18 171.06 Z"
     id="path3442" />
  <path
     fill="#b3b2bc"
     d=" M 285.03 178.04 C 283.66 174.45 288.29 173.62 290.32 171.83 C 290.20 174.39 290.10 176.96 290.04 179.52 C 288.33 179.31 286.05 179.85 285.03 178.04 Z"
     id="path3444" />
  <path
     fill="#b3b2bc"
     d=" M 291.16 172.05 C 294.50 172.26 289.56 175.00 291.16 172.05 Z"
     id="path3446" />
  <path
     fill="#b3b2bc"
     d=" M 293.03 174.13 C 294.10 173.16 295.18 172.20 296.29 171.28 C 295.94 173.90 295.41 176.50 294.89 179.10 L 294.20 179.10 C 293.85 177.43 293.48 175.77 293.03 174.13 Z"
     id="path3448" />
  <path
     fill="#b3b2bc"
     d=" M 343.94 176.23 C 345.53 174.51 347.38 173.06 349.12 171.49 C 349.16 173.01 349.24 174.52 349.35 176.03 C 350.13 175.44 350.87 174.81 351.58 174.12 C 352.72 174.01 353.88 173.92 355.04 173.83 C 355.05 174.72 355.06 176.50 355.07 177.38 C 354.31 177.28 352.77 177.08 352.01 176.98 L 352.00 177.93 C 352.79 177.96 354.38 178.03 355.17 178.06 C 354.31 178.73 353.46 179.41 352.62 180.08 C 351.48 179.25 350.85 177.43 349.35 177.26 C 348.53 178.43 347.53 179.47 346.38 180.32 C 345.52 178.98 344.61 177.67 343.94 176.23 Z"
     id="path3450" />
  <path
     fill="#b3b2bc"
     d=" M 373.08 174.90 C 374.92 174.00 376.66 172.93 378.28 171.68 C 378.15 174.29 378.10 176.91 378.07 179.53 C 374.86 180.14 372.68 178.02 372.01 175.03 C 372.02 176.13 372.03 178.32 372.04 179.41 L 370.90 179.39 C 370.78 177.74 370.64 176.09 370.48 174.45 C 369.05 175.98 368.92 178.14 368.36 180.05 C 367.97 177.93 367.84 175.78 367.82 173.62 C 369.58 173.99 371.34 174.41 373.08 174.90 Z"
     id="path3452" />
  <path
     fill="#b3b2bc"
     d=" M 379.18 172.15 C 382.15 170.61 379.31 175.50 379.18 172.15 Z"
     id="path3454" />
  <path
     fill="#b3b2bc"
     d=" M 418.05 179.36 C 418.06 176.67 418.20 173.98 418.56 171.31 C 419.02 171.88 419.93 173.02 420.39 173.59 C 421.02 173.76 422.28 174.11 422.91 174.29 C 422.64 175.35 424.42 179.09 422.26 177.74 C 421.54 176.66 420.83 175.57 420.11 174.51 C 420.37 175.94 420.73 177.36 420.95 178.81 C 420.23 178.95 418.78 179.22 418.05 179.36 Z"
     id="path3456" />
  <path
     fill="#b3b2bc"
     d=" M 429.82 171.92 C 431.20 172.08 432.57 172.24 433.95 172.39 C 433.69 174.88 434.78 178.17 432.12 179.70 C 432.01 177.58 431.98 175.46 431.97 173.35 L 430.76 173.30 C 430.93 175.27 431.08 177.26 431.23 179.24 L 429.92 179.29 C 429.91 176.83 429.89 174.37 429.82 171.92 Z"
     id="path3458" />
  <path
     fill="#b3b2bc"
     d=" M 435.12 175.11 C 436.40 173.77 437.96 172.75 439.42 171.64 C 439.69 174.15 439.84 176.67 439.95 179.20 C 438.19 179.19 436.43 179.17 434.69 179.14 C 434.77 177.79 434.91 176.44 435.12 175.11 Z"
     id="path3460" />
  <path
     fill="#b3b2bc"
     d=" M 479.91 173.66 C 481.22 172.82 482.54 172.02 483.90 171.26 C 482.93 174.15 482.07 177.09 481.70 180.14 C 481.08 177.98 480.51 175.81 479.91 173.66 Z"
     id="path3462" />
  <path
     fill="#b3b2bc"
     d=" M 527.98 173.04 C 528.95 172.31 530.01 171.72 531.17 171.27 C 530.64 174.18 530.10 177.08 529.51 179.98 C 528.17 177.92 527.86 175.44 527.98 173.04 Z"
     id="path3464" />
  <path
     fill="#b3b2bc"
     d=" M 554.11 171.08 C 556.25 173.60 555.09 177.01 556.29 179.89 C 552.38 178.88 553.86 173.97 554.11 171.08 Z"
     id="path3466" />
  <path
     fill="#b3b2bc"
     d=" M 273.80 175.88 C 273.55 174.55 273.80 173.60 274.57 173.01 C 275.39 174.54 275.20 176.45 274.92 178.10 C 274.05 179.83 273.67 176.38 273.80 175.88 Z"
     id="path3468" />
  <path
     fill="#b3b2bc"
     d=" M 186.67 176.00 C 187.44 173.67 190.01 173.97 191.96 173.83 C 191.98 174.70 192.03 176.44 192.05 177.30 C 190.92 177.32 189.80 177.34 188.67 177.37 C 189.42 177.65 190.90 178.21 191.64 178.49 C 189.86 181.08 186.33 178.61 186.67 176.00 Z"
     id="path3470" />
  <path
     fill="#b3b2bc"
     d=" M 192.95 173.99 C 193.88 173.96 195.73 173.89 196.66 173.86 C 195.32 175.77 194.14 177.80 193.01 179.84 C 192.98 177.88 192.97 175.94 192.95 173.99 Z"
     id="path3472" />
  <path
     fill="#b3b2bc"
     d=" M 199.65 175.84 C 199.37 175.01 199.06 174.18 198.75 173.37 C 199.73 173.86 201.67 174.84 202.65 175.33 C 201.16 176.45 199.42 177.06 197.74 177.79 C 199.00 177.89 201.52 178.11 202.78 178.21 C 201.22 178.11 199.51 180.34 197.90 179.22 C 196.27 178.46 197.08 176.32 196.89 174.94 C 197.77 175.37 198.69 175.67 199.65 175.84 Z"
     id="path3474" />
  <path
     fill="#b3b2bc"
     d=" M 208.75 174.02 C 211.29 173.99 213.84 173.95 216.39 173.86 C 216.91 175.80 217.19 177.78 217.30 179.79 C 216.26 178.07 215.32 176.30 214.36 174.54 C 214.21 176.05 214.08 177.55 213.95 179.06 C 213.54 179.04 212.73 178.98 212.32 178.96 C 212.11 177.47 211.89 175.99 211.66 174.52 C 210.85 176.21 210.22 177.98 209.60 179.76 C 209.01 177.90 208.85 175.95 208.75 174.02 Z"
     id="path3476" />
  <path
     fill="#b3b2bc"
     d=" M 217.84 176.94 C 217.15 172.84 222.00 174.01 224.44 174.29 C 225.70 177.20 227.59 174.56 229.22 173.55 C 227.74 176.54 227.11 180.82 223.32 181.72 C 223.88 180.52 224.45 179.32 225.04 178.14 C 224.42 176.98 223.80 175.83 223.19 174.68 C 223.12 176.23 223.05 177.78 222.99 179.33 C 221.12 179.17 217.72 179.82 217.84 176.94 Z"
     id="path3478" />
  <path
     fill="#b3b2bc"
     d=" M 242.13 178.88 C 240.09 177.75 240.32 173.74 243.02 173.91 C 245.25 173.18 245.95 175.51 246.68 177.06 C 245.67 177.12 243.66 177.23 242.65 177.29 C 243.89 177.73 245.14 178.17 246.38 178.63 C 244.99 179.01 243.39 180.23 242.13 178.88 Z"
     id="path3480" />
  <path
     fill="#b3b2bc"
     d=" M 252.53 175.20 C 253.45 173.15 256.74 173.71 258.09 175.08 C 257.27 175.07 255.63 175.05 254.80 175.04 C 255.96 175.75 257.12 176.44 258.21 177.24 C 257.79 180.27 253.89 179.00 251.94 178.78 C 253.32 178.26 254.73 177.87 256.19 177.61 C 254.85 177.00 253.12 176.75 252.53 175.20 Z"
     id="path3482" />
  <path
     fill="#b3b2bc"
     d=" M 258.71 173.96 C 261.07 173.94 263.44 173.94 265.81 173.94 C 266.13 174.50 266.75 175.63 267.07 176.20 C 267.74 175.46 268.43 174.73 269.11 174.00 C 270.60 173.92 272.09 173.83 273.59 173.74 C 273.97 176.58 273.46 179.31 270.46 180.34 C 269.03 179.25 267.50 177.74 265.69 179.23 C 265.34 177.76 264.99 176.30 264.64 174.84 C 263.85 176.46 263.08 178.09 262.31 179.72 C 262.02 177.97 261.71 176.22 261.37 174.49 C 260.21 175.83 260.03 177.61 259.72 179.29 L 258.62 179.29 C 258.64 177.51 258.67 175.73 258.71 173.96 Z"
     id="path3484" />
  <path
     fill="#b3b2bc"
     d=" M 307.59 174.30 C 308.04 174.24 308.96 174.13 309.42 174.07 C 309.24 175.57 307.93 177.01 307.55 178.59 C 306.30 177.95 306.63 175.28 307.59 174.30 Z"
     id="path3486" />
  <path
     fill="#b3b2bc"
     d=" M 308.95 176.66 C 310.63 174.95 312.59 173.51 315.14 173.84 C 315.14 175.69 315.12 177.55 315.10 179.40 C 312.57 179.80 310.64 178.32 308.95 176.66 Z"
     id="path3488" />
  <path
     fill="#b3b2bc"
     d=" M 315.83 174.10 C 317.29 173.99 318.76 173.88 320.22 173.78 C 320.91 175.78 321.20 177.88 321.20 180.01 C 319.59 178.63 319.21 176.51 318.56 174.62 C 318.00 176.46 317.88 178.66 316.15 179.88 C 315.99 177.95 315.90 176.02 315.83 174.10 Z"
     id="path3490" />
  <path
     fill="#b3b2bc"
     d=" M 322.88 173.46 C 324.19 173.52 325.21 173.98 325.96 174.85 C 324.88 175.43 322.30 174.87 323.23 176.81 C 323.14 178.21 325.33 176.97 326.01 177.44 C 325.80 178.60 325.56 179.77 325.32 180.94 C 324.20 179.93 323.04 178.98 322.07 177.83 C 321.30 176.35 322.53 174.86 322.88 173.46 Z"
     id="path3492" />
  <path
     fill="#b3b2bc"
     d=" M 326.91 176.99 C 327.14 174.36 329.61 173.76 331.85 173.79 C 331.97 174.74 332.20 176.64 332.32 177.58 C 331.34 177.48 329.39 177.27 328.42 177.17 C 329.32 177.48 331.13 178.09 332.03 178.40 C 331.14 178.94 330.27 179.48 329.39 180.02 C 328.46 179.11 327.12 178.41 326.91 176.99 Z"
     id="path3494" />
  <path
     fill="#b3b2bc"
     d=" M 332.49 173.74 C 334.32 173.73 335.97 174.24 337.44 175.28 C 336.55 175.24 334.76 175.18 333.86 175.15 C 335.20 175.88 336.53 176.61 337.86 177.35 C 337.36 178.42 336.86 179.49 336.37 180.56 C 334.63 180.29 333.32 179.13 332.22 177.84 C 332.93 177.88 334.36 177.97 335.08 178.02 C 333.89 176.81 332.96 175.38 332.49 173.74 Z"
     id="path3496" />
  <path
     fill="#b3b2bc"
     d=" M 355.92 173.77 C 357.23 173.87 358.55 174.03 359.86 174.24 C 360.65 175.24 360.92 176.52 361.40 177.68 C 359.79 179.05 358.19 180.42 356.58 181.78 C 356.03 179.15 355.88 176.45 355.92 173.77 Z"
     id="path3498" />
  <path
     fill="#b3b2bc"
     d=" M 362.37 174.48 C 363.74 173.54 366.02 173.59 367.08 175.02 C 367.18 177.02 364.69 177.17 363.34 177.57 C 364.19 177.68 365.87 177.92 366.72 178.03 C 365.65 178.71 364.60 179.38 363.53 180.04 C 363.07 179.47 362.16 178.32 361.70 177.75 C 361.87 176.64 362.09 175.55 362.37 174.48 Z"
     id="path3500" />
  <path
     fill="#b3b2bc"
     d=" M 381.61 173.63 C 384.33 173.34 386.26 174.77 387.38 177.19 C 387.61 176.40 388.06 174.81 388.28 174.02 C 389.69 173.98 391.10 173.94 392.51 173.90 C 392.48 176.34 392.50 178.79 392.11 181.20 C 391.24 181.36 389.50 181.67 388.63 181.83 C 389.20 181.21 390.36 179.96 390.94 179.34 C 389.74 179.02 388.54 178.70 387.34 178.37 C 386.51 178.70 385.68 179.04 384.87 179.37 C 384.85 177.72 384.80 176.07 384.73 174.43 C 383.20 175.83 382.96 177.94 382.34 179.80 C 381.93 177.77 381.71 175.70 381.61 173.63 Z"
     id="path3502" />
  <path
     fill="#b3b2bc"
     d=" M 401.18 174.02 C 401.95 173.96 403.48 173.85 404.25 173.79 C 404.66 175.45 406.03 177.89 403.88 178.94 C 401.72 180.82 399.14 178.01 399.11 175.73 C 399.63 175.30 400.67 174.45 401.18 174.02 Z"
     id="path3504" />
  <path
     fill="#b3b2bc"
     d=" M 405.86 174.01 C 407.32 173.98 408.78 173.94 410.25 173.91 C 410.69 175.87 410.99 177.86 411.14 179.87 C 409.47 178.86 409.00 176.95 408.38 175.27 C 407.65 176.80 406.92 178.34 406.13 179.84 C 406.00 177.89 405.92 175.95 405.86 174.01 Z"
     id="path3506" />
  <path
     fill="#b3b2bc"
     d=" M 423.93 179.17 C 424.07 177.15 423.56 174.76 425.54 173.45 C 425.86 175.07 426.18 176.69 426.45 178.32 C 426.92 176.55 426.84 174.26 428.89 173.47 C 428.89 175.37 428.85 177.27 428.81 179.18 C 427.17 179.18 425.55 179.18 423.93 179.17 Z"
     id="path3508" />
  <path
     fill="#b3b2bc"
     d=" M 441.18 174.26 C 442.47 173.99 443.77 173.76 445.08 173.59 C 445.08 174.58 445.08 176.57 445.08 177.56 C 444.32 177.41 442.81 177.11 442.05 176.96 L 442.04 177.94 C 442.93 178.00 444.70 178.11 445.59 178.16 C 444.06 178.87 442.45 179.30 440.77 179.43 C 440.86 177.70 440.90 175.97 441.18 174.26 Z"
     id="path3510" />
  <path
     fill="#b3b2bc"
     d=" M 445.83 173.97 C 446.85 173.93 448.87 173.85 449.88 173.81 C 448.46 175.75 447.24 177.82 446.06 179.91 C 445.97 177.93 445.90 175.95 445.83 173.97 Z"
     id="path3512" />
  <path
     fill="#b3b2bc"
     d=" M 449.41 175.57 C 450.90 173.71 453.51 173.27 455.27 175.14 C 454.47 175.14 452.87 175.15 452.07 175.15 L 452.11 175.45 C 453.31 176.24 454.51 177.05 455.69 177.88 C 453.57 179.38 450.97 180.53 449.36 177.65 C 450.32 177.68 452.24 177.76 453.20 177.80 C 451.93 177.06 450.66 176.32 449.41 175.57 Z"
     id="path3514" />
  <path
     fill="#b3b2bc"
     d=" M 464.93 173.77 C 466.68 174.07 468.94 173.53 470.05 175.32 C 471.14 178.76 467.13 179.89 464.98 181.48 C 464.95 178.91 464.93 176.34 464.93 173.77 Z"
     id="path3516" />
  <path
     fill="#b3b2bc"
     d=" M 470.82 173.93 C 471.84 173.95 473.89 173.98 474.92 174.00 C 474.14 174.73 473.38 175.46 472.61 176.19 C 472.21 177.64 471.79 179.09 471.33 180.53 C 471.06 178.34 470.91 176.14 470.82 173.93 Z"
     id="path3518" />
  <path
     fill="#b3b2bc"
     d=" M 474.84 176.97 C 474.13 174.09 476.95 173.84 479.04 173.64 C 479.23 174.61 479.62 176.56 479.82 177.54 C 479.02 177.40 477.44 177.12 476.65 176.98 L 476.90 178.01 C 477.73 178.00 479.38 177.97 480.21 177.96 C 478.72 179.75 474.70 180.05 474.84 176.97 Z"
     id="path3520" />
  <path
     fill="#b3b2bc"
     d=" M 484.88 173.55 C 486.50 173.92 488.11 174.32 489.73 174.73 C 489.11 177.13 488.83 180.17 485.28 179.44 C 486.14 178.50 487.07 177.63 487.99 176.75 C 486.40 176.61 485.05 177.11 484.15 178.45 C 484.05 177.59 483.85 175.88 483.74 175.02 C 484.49 175.17 485.98 175.48 486.73 175.64 C 486.27 175.11 485.34 174.07 484.88 173.55 Z"
     id="path3522" />
  <path
     fill="#b3b2bc"
     d=" M 490.59 174.34 C 491.04 174.28 491.93 174.15 492.38 174.08 C 492.21 175.50 491.19 177.64 490.29 178.62 C 489.66 177.32 489.62 175.49 490.59 174.34 Z"
     id="path3524" />
  <path
     fill="#b3b2bc"
     d=" M 492.37 176.27 C 493.96 174.84 495.80 173.76 497.98 173.61 C 498.04 174.51 498.15 176.31 498.21 177.20 C 497.43 177.16 495.87 177.09 495.09 177.05 L 494.96 177.90 C 495.90 177.89 497.79 177.88 498.73 177.88 C 496.75 180.88 493.60 178.56 492.37 176.27 Z"
     id="path3526" />
  <path
     fill="#b3b2bc"
     d=" M 498.79 174.12 C 500.30 173.99 501.82 173.87 503.35 173.74 C 503.89 175.68 504.10 177.69 504.08 179.71 C 503.15 178.01 502.29 176.29 501.40 174.58 C 500.78 176.23 501.88 179.92 499.00 179.17 C 498.85 177.48 498.82 175.80 498.79 174.12 Z"
     id="path3528" />
  <path
     fill="#b3b2bc"
     d=" M 505.93 173.51 C 507.39 173.94 508.85 174.39 510.31 174.84 C 508.76 175.10 507.24 175.44 505.74 175.87 C 506.37 177.86 508.70 177.70 510.27 178.46 C 508.76 178.81 506.72 180.12 505.53 178.42 C 503.91 177.06 505.52 175.02 505.93 173.51 Z"
     id="path3530" />
  <path
     fill="#b3b2bc"
     d=" M 511.25 174.27 C 512.42 174.07 513.59 173.92 514.78 173.81 C 514.96 174.67 515.32 176.40 515.51 177.27 C 514.64 177.22 512.90 177.11 512.03 177.05 L 512.00 177.93 C 512.93 177.97 514.78 178.05 515.71 178.09 C 514.31 179.45 512.41 179.31 510.63 179.30 C 510.77 177.61 510.76 175.90 511.25 174.27 Z"
     id="path3532" />
  <path
     fill="#b3b2bc"
     d=" M 516.18 174.25 C 517.60 174.01 519.04 173.83 520.49 173.72 L 520.46 175.40 C 519.84 175.34 518.59 175.22 517.96 175.16 C 519.14 175.97 520.32 176.78 521.50 177.60 C 520.55 178.40 519.60 179.21 518.67 180.02 C 517.59 179.28 516.52 178.54 515.46 177.79 C 516.41 177.83 518.31 177.92 519.26 177.97 C 518.01 176.89 515.14 176.42 516.18 174.25 Z"
     id="path3534" />
  <path
     fill="#b3b2bc"
     d=" M 530.78 177.58 C 531.26 175.38 532.43 173.48 534.95 173.58 C 535.57 174.48 536.20 175.38 536.85 176.28 C 537.14 175.71 537.74 174.57 538.04 174.00 C 538.82 173.97 540.38 173.92 541.15 173.90 C 539.55 175.68 538.71 177.92 537.90 180.14 C 537.69 179.56 537.25 178.40 537.04 177.82 C 536.01 178.51 534.99 179.20 533.98 179.89 C 532.91 179.11 531.84 178.34 530.78 177.58 Z"
     id="path3536" />
  <path
     fill="#b3b2bc"
     d=" M 547.31 173.76 C 549.25 173.86 551.23 174.03 553.04 174.82 C 552.19 174.91 550.49 175.09 549.63 175.18 C 550.89 175.89 552.15 176.61 553.41 177.35 C 552.30 178.24 551.23 179.20 549.97 179.87 C 548.86 179.35 548.00 178.56 547.38 177.48 C 548.59 177.56 549.80 177.65 551.03 177.77 C 549.15 177.07 547.83 175.71 547.31 173.76 Z"
     id="path3538" />
  <path
     fill="#b3b2bc"
     d=" M 557.12 173.95 C 558.82 174.12 560.98 173.42 562.11 175.15 C 561.71 177.16 559.33 177.12 557.83 177.89 C 558.78 177.88 560.67 177.87 561.62 177.86 C 561.17 178.37 560.27 179.39 559.81 179.90 C 558.79 179.32 557.76 178.74 556.75 178.16 C 556.87 176.75 556.99 175.35 557.12 173.95 Z"
     id="path3540" />
  <path
     fill="#b3b2bc"
     d=" M 562.92 173.96 C 565.41 173.94 567.89 173.93 570.38 173.92 C 570.40 175.95 571.70 178.74 569.20 179.85 C 568.97 178.06 568.73 176.27 568.49 174.49 C 568.08 175.98 567.77 177.49 567.66 179.04 C 567.27 179.07 566.48 179.13 566.09 179.16 C 565.92 177.58 565.75 176.01 565.55 174.44 C 564.40 175.80 564.14 177.56 563.83 179.25 L 562.88 179.22 C 562.89 177.47 562.90 175.71 562.92 173.96 Z"
     id="path3542" />
  <path
     fill="#b3b2bc"
     d=" M 571.75 173.62 C 573.31 173.92 574.86 174.28 576.41 174.70 C 575.53 174.80 573.76 174.99 572.87 175.08 C 574.56 175.76 576.15 176.66 577.50 177.92 C 575.46 179.08 573.08 180.38 571.21 178.18 C 572.51 177.93 573.82 177.70 575.14 177.48 C 574.39 177.30 572.90 176.94 572.16 176.77 C 572.06 175.98 571.85 174.40 571.75 173.62 Z"
     id="path3544" />
  <path
     fill="#fefefe"
     d=" M 220.09 175.25 C 221.44 175.27 221.71 177.72 220.23 177.74 C 218.88 177.69 218.59 175.27 220.09 175.25 Z"
     id="path3546" />
  <path
     fill="#fefefe"
     d=" M 237.21 175.25 C 238.74 174.07 240.10 176.79 238.76 177.76 C 237.23 178.92 235.83 176.20 237.21 175.25 Z"
     id="path3548" />
  <path
     fill="#fefefe"
     d=" M 270.01 175.07 C 271.77 174.60 272.17 177.46 270.60 177.92 C 268.77 178.55 268.33 175.44 270.01 175.07 Z"
     id="path3550" />
  <path
     fill="#fefefe"
     d=" M 287.11 175.00 C 288.95 174.43 289.86 177.53 287.96 177.99 C 286.13 178.55 285.21 175.44 287.11 175.00 Z"
     id="path3552" />
  <path
     fill="#b3b2bc"
     d=" M 291.26 175.27 C 292.69 175.24 292.51 177.77 291.78 178.57 C 290.36 178.59 290.54 176.06 291.26 175.27 Z"
     id="path3554" />
  <path
     fill="#b3b2bc"
     d=" M 301.18 175.76 C 302.21 175.07 303.70 175.18 304.86 175.45 C 305.14 177.53 299.68 178.81 301.18 175.76 Z"
     id="path3556" />
  <path
     fill="#fefefe"
     d=" M 329.25 175.24 C 329.76 175.75 329.76 175.75 329.25 175.24 Z"
     id="path3558" />
  <path
     fill="#fefefe"
     d=" M 346.23 175.25 C 347.78 174.01 349.00 176.83 347.70 177.78 C 346.14 179.02 344.87 176.19 346.23 175.25 Z"
     id="path3560" />
  <path
     fill="#fefefe"
     d=" M 358.11 175.60 C 359.29 174.65 360.56 176.77 359.46 177.60 C 358.25 178.60 357.03 176.43 358.11 175.60 Z"
     id="path3562" />
  <path
     fill="#fefefe"
     d=" M 364.29 175.31 C 364.79 175.81 364.79 175.81 364.29 175.31 Z"
     id="path3564" />
  <path
     fill="#fefefe"
     d=" M 375.05 175.25 C 376.52 174.16 378.01 176.75 376.71 177.77 C 375.22 178.86 373.68 176.26 375.05 175.25 Z"
     id="path3566" />
  <path
     fill="#b3b2bc"
     d=" M 379.05 174.04 C 381.45 175.42 380.55 178.16 380.24 180.34 C 378.36 178.70 379.13 176.15 379.05 174.04 Z"
     id="path3568" />
  <path
     fill="#fefefe"
     d=" M 389.26 175.21 C 390.81 174.05 392.05 176.85 390.77 177.81 C 389.21 178.97 387.97 176.17 389.26 175.21 Z"
     id="path3570" />
  <path
     fill="#fefefe"
     d=" M 402.20 175.17 C 403.84 175.15 403.71 177.88 402.16 177.93 C 400.51 177.94 400.64 175.21 402.20 175.17 Z"
     id="path3572" />
  <path
     fill="#fefefe"
     d=" M 436.43 175.29 C 437.84 174.25 438.99 176.79 437.81 177.66 C 436.39 178.68 435.21 176.15 436.43 175.29 Z"
     id="path3574" />
  <path
     fill="#fefefe"
     d=" M 442.29 175.09 C 445.25 173.52 442.47 178.39 442.29 175.09 Z"
     id="path3576" />
  <path
     fill="#fefefe"
     d=" M 466.37 175.44 C 467.57 174.30 469.89 176.21 468.59 177.49 C 467.38 178.59 465.10 176.70 466.37 175.44 Z"
     id="path3578" />
  <path
     fill="#fefefe"
     d=" M 477.25 175.27 C 477.75 175.79 477.75 175.79 477.25 175.27 Z"
     id="path3580" />
  <path
     fill="#fefefe"
     d=" M 496.18 175.27 C 496.67 175.79 496.67 175.79 496.18 175.27 Z"
     id="path3582" />
  <path
     fill="#fefefe"
     d=" M 533.32 175.26 C 534.83 174.05 536.21 176.80 534.84 177.75 C 533.30 178.95 531.96 176.21 533.32 175.26 Z"
     id="path3584" />
  <path
     fill="#fefefe"
     d=" M 312.31 177.08 C 315.36 175.66 312.32 180.38 312.31 177.08 Z"
     id="path3588" />
  <path
     fill="#b3b2bc"
     d=" M 302.89 177.92 C 304.36 177.47 304.85 177.93 304.34 179.28 C 302.87 179.72 302.39 179.26 302.89 177.92 Z"
     id="path3590" />
  <rect
     style="fill:#ffffff"
     id="rect3640"
     width="435.53525"
     height="21.230829"
     x="158.92793"
     y="159.91641"
     sodipodi:insensitive="true" />
  <g
     inkscape:groupmode="layer"
     id="layer1"
     inkscape:label="text" />
  <g
     inkscape:groupmode="layer"
     id="layer2"
     inkscape:label="text 1" />
  <text
     xml:space="preserve"
     style="font-style:normal;font-variant:normal;font-weight:normal;font-stretch:normal;font-size:32px;line-height:125%;font-family:Merriweather;-inkscape-font-specification:'Merriweather, Normal';text-align:start;letter-spacing:0px;word-spacing:0px;writing-mode:lr-tb;text-anchor:start;fill:#000000;fill-opacity:1;stroke:none;stroke-width:1px;stroke-linecap:butt;stroke-linejoin:miter;stroke-opacity:1"
     x="155.28835"
     y="-83.328224"
     id="text3644"
     sodipodi:linespacing="125%"><tspan
       sodipodi:role="line"
       id="tspan3646"
       x="155.28835"
       y="-83.328224" /></text>
  <text
     xml:space="preserve"
     style="font-style:normal;font-variant:normal;font-weight:normal;font-stretch:normal;font-size:32px;line-height:125%;font-family:Merriweather;-inkscape-font-specification:'Merriweather, Normal';text-align:start;letter-spacing:0px;word-spacing:0px;writing-mode:lr-tb;text-anchor:start;fill:#000000;fill-opacity:1;stroke:none;stroke-width:1px;stroke-linecap:butt;stroke-linejoin:miter;stroke-opacity:1"
     x="144.97623"
     y="-80.295242"
     id="text3648"
     sodipodi:linespacing="125%"><tspan
       sodipodi:role="line"
       id="tspan3650"
       x="144.97623"
       y="-80.295242" /></text>
  <flowRoot
     xml:space="preserve"
     id="flowRoot3652"
     style="fill:black;stroke:none;stroke-opacity:1;stroke-width:1px;stroke-linejoin:miter;stroke-linecap:butt;fill-opacity:1;font-family:Merriweather;font-style:normal;font-weight:normal;font-size:40px;line-height:125%;letter-spacing:0px;word-spacing:0px;-inkscape-font-specification:'Merriweather, Normal';font-stretch:normal;font-variant:normal;text-anchor:start;text-align:start;writing-mode:lr"><flowRegion
       id="flowRegion3654"><rect
         id="rect3656"
         width="346.51746"
         height="51.560581"
         x="245.67101"
         y="-180.7429" /></flowRegion><flowPara
       id="flowPara3658"></flowPara></flowRoot>  <text
     xml:space="preserve"
     style="font-style:normal;font-variant:normal;font-weight:normal;font-stretch:normal;font-size:32px;line-height:125%;font-family:Merriweather;-inkscape-font-specification:'Merriweather, Normal';text-align:start;letter-spacing:0px;word-spacing:0px;writing-mode:lr-tb;text-anchor:start;fill:#000000;fill-opacity:1;stroke:none;stroke-width:1px;stroke-linecap:butt;stroke-linejoin:miter;stroke-opacity:1"
     x="223.83359"
     y="-130.03604"
     id="text3660"
     sodipodi:linespacing="125%"><tspan
       sodipodi:role="line"
       id="tspan3662"
       x="223.83359"
       y="-130.03604" /></text>
  <flowRoot
     xml:space="preserve"
     id="flowRoot3672"
     style="font-style:normal;font-variant:normal;font-weight:normal;font-stretch:normal;font-size:15px;line-height:125%;font-family:Verdana;-inkscape-font-specification:Verdana;text-align:start;letter-spacing:0px;word-spacing:0px;writing-mode:lr-tb;text-anchor:start;fill:#000000;fill-opacity:1;stroke:none;stroke-width:1px;stroke-linecap:butt;stroke-linejoin:miter;stroke-opacity:1;"
     transform="scale(0.8,0.8)"><flowRegion
       id="flowRegion3674"><rect
         id="rect3676"
         width="188.04448"
         height="61.417751"
         x="335.90204"
         y="-290.68826"
         style="-inkscape-font-specification:Verdana;font-family:Verdana;font-weight:normal;font-style:normal;font-stretch:normal;font-variant:normal;font-size:15px;" /></flowRegion><flowPara
       id="flowPara3678" /></flowRoot>  <text
     xml:space="preserve"
     style="font-style:normal;font-variant:normal;font-weight:normal;font-stretch:normal;font-size:12px;line-height:125%;font-family:Verdana;-inkscape-font-specification:Verdana;text-align:start;letter-spacing:0px;word-spacing:0px;writing-mode:lr-tb;text-anchor:start;fill:#000000;fill-opacity:1;stroke:none;stroke-width:1px;stroke-linecap:butt;stroke-linejoin:miter;stroke-opacity:1"
     x="181.15807"
     y="165.73991"
     id="text3680"
     sodipodi:linespacing="125%"><tspan
       sodipodi:role="line"
       id="tspan3682"
       x="181.15807"
       y="165.73991"
       style="font-size:10px">There may be small differences depending on the builder's preferences for sterns.</tspan></text>
</svg>
